<?xml version="1.0" encoding="UTF-8" standalone="no"?>
<svg width="147px" height="65px" viewBox="0 0 147 65" version="1.1" xmlns="http://www.w3.org/2000/svg" xmlns:xlink="http://www.w3.org/1999/xlink" xmlns:sketch="http://www.bohemiancoding.com/sketch/ns">
    <!-- Generator: Sketch 3.3.3 (12081) - http://www.bohemiancoding.com/sketch -->
    <title>Business_News_Network_logo</title>
    <desc>Created with Sketch.</desc>
    <defs></defs>
    <g id="Desktop" stroke="none" stroke-width="1" fill="none" fill-rule="evenodd" sketch:type="MSPage">
        <g id="Index-page" sketch:type="MSArtboardGroup" transform="translate(-1033.000000, -3450.000000)" fill="#4B4B4A">
            <g id="Business_News_Network_logo" sketch:type="MSLayerGroup" transform="translate(1033.000000, 3450.000000)">
                <path d="M0.145544554,1.06716418 L27.6534653,1.06716418 C35.9009901,1.06716418 43.1782178,5.14179104 43.1782178,13.2910448 C43.1782178,17.511194 40.6069307,20.858209 36.580198,22.4104478 C42.1594059,23.9626866 46.1861386,27.7462687 46.1861386,33.5671642 C46.1861386,41.7164179 39.0544554,46.8097015 29.6425743,46.8097015 L0.145544554,46.8097015 L0.145544554,1.06716418 L0.145544554,1.06716418 Z M10.0910891,19.3544776 L26.5376238,19.3544776 C30.9039604,19.3544776 33.2326733,16.9291045 33.2326733,14.1641791 C33.2326733,11.4962687 30.9039604,9.07089552 26.5376238,9.07089552 L10.0910891,9.07089552 L10.0910891,19.3544776 L10.0910891,19.3544776 Z M10.0910891,38.7574627 L28.4782178,38.7574627 C32.9415842,38.7574627 36.1920792,36.2835821 36.1920792,33.0820896 C36.1920792,29.7835821 32.9415842,27.3097015 28.4782178,27.3097015 L10.0910891,27.3097015 L10.0910891,38.7574627 L10.0910891,38.7574627 Z" id="Shape" sketch:type="MSShapeGroup"></path>
                <path d="M59.6247525,19.8395522 L59.6247525,46.8097015 L49.6792079,46.8097015 L49.6792079,0.0970149254 L84.4158416,28.0373134 L84.4158416,1.06716418 L94.3613861,1.06716418 L94.3613861,47.7313433 L59.6247525,19.8395522 Z" id="Shape" sketch:type="MSShapeGroup"></path>
                <path d="M110.371287,19.8395522 L110.371287,46.8097015 L100.425743,46.8097015 L100.425743,0.0970149254 L135.162376,28.0373134 L135.162376,1.06716418 L145.107921,1.06716418 L145.107921,47.7313433 L110.371287,19.8395522 Z" id="Shape" sketch:type="MSShapeGroup"></path>
                <path d="M0,52.7276119 L0,64.4664179 L3.25049505,64.4664179 C5.33663366,64.4664179 6.45247525,63.2537313 6.45247525,61.0223881 C6.45247525,59.6641791 5.96732673,58.8395522 4.9970297,58.3059701 C5.87029703,57.8208955 6.25841584,56.7537313 6.25841584,55.9291045 C6.25841584,53.8432836 5.19108911,52.7761194 3.05643564,52.7761194 L0,52.7761194 L0,52.7276119 Z M2.86237624,54.6679104 C3.63861386,54.6679104 3.97821782,55.1529851 3.97821782,56.1716418 C3.97821782,56.9477612 3.54158416,57.4813433 2.81386139,57.4813433 L2.23168317,57.4813433 L2.23168317,54.6679104 L2.86237624,54.6679104 L2.86237624,54.6679104 Z M2.76534653,59.3731343 C3.83267327,59.3731343 4.22079208,59.858209 4.22079208,60.9738806 C4.22079208,62.1380597 3.83267327,62.5746269 2.95940594,62.5746269 L2.28019802,62.5746269 L2.28019802,59.3246269 C2.28019802,59.3731343 2.76534653,59.3731343 2.76534653,59.3731343 L2.76534653,59.3731343 Z" id="Shape" sketch:type="MSShapeGroup"></path>
                <path d="M11.9831683,52.7276119 L11.9831683,61.5074627 C11.9831683,62.2835821 11.6920792,62.6231343 11.0613861,62.6231343 C10.4306931,62.6231343 10.139604,62.2835821 10.139604,61.5074627 L10.139604,52.7276119 L7.90792079,52.7276119 L7.90792079,61.4589552 C7.90792079,63.4477612 9.07227723,64.6604478 11.0613861,64.6604478 C13.050495,64.6604478 14.2148515,63.4477612 14.2148515,61.4589552 L14.2148515,52.7276119 C14.2633663,52.7276119 11.9831683,52.7276119 11.9831683,52.7276119 L11.9831683,52.7276119 Z" id="Shape" sketch:type="MSShapeGroup"></path>
                <path d="M15.5732673,55.5895522 C15.5732673,57.4328358 16.7861386,58.5 17.9019802,59.3731343 C18.7752475,60.1492537 19.6,60.7798507 19.6,61.75 C19.6,62.3320896 19.2118812,62.6716418 18.5811881,62.6716418 C17.9990099,62.6716418 17.6108911,62.0895522 17.5623762,61.0708955 L17.5623762,60.9253731 L15.4277228,61.2164179 L15.4277228,61.3619403 C15.5247525,63.011194 16.4950495,64.6604478 18.5326733,64.6604478 C20.5217822,64.6604478 21.7831683,63.4962687 21.7831683,61.6044776 C21.7831683,59.8097015 20.5217822,58.6940299 19.4059406,57.7723881 C18.5326733,57.0447761 17.8049505,56.4141791 17.8049505,55.6380597 C17.8049505,55.2014925 17.950495,54.6679104 18.629703,54.6679104 C18.8722772,54.6679104 19.4544554,54.7649254 19.5514851,55.7835821 L19.5514851,55.9291045 L21.7346535,55.6865672 L21.7346535,55.5410448 C21.5405941,53.7462687 20.4247525,52.630597 18.8722772,52.630597 C16.7376238,52.5820896 15.5732673,53.6977612 15.5732673,55.5895522" id="Shape" sketch:type="MSShapeGroup"></path>
                <rect id="Rectangle-path" sketch:type="MSShapeGroup" x="23.190099" y="52.7276119" width="2.23168317" height="11.738806"></rect>
                <path d="M31.5831683,52.7276119 L31.5831683,58.6940299 C31.1950495,57.6268657 29.4,52.7276119 29.4,52.7276119 L27.3138614,52.7276119 L27.3138614,64.4664179 L29.4,64.4664179 L29.4,57.9179104 C29.7881188,59.0820896 31.680198,64.4664179 31.680198,64.4664179 L33.6693069,64.4664179 L33.6693069,52.7276119 L31.5831683,52.7276119 L31.5831683,52.7276119 Z" id="Shape" sketch:type="MSShapeGroup"></path>
                <path d="M35.270297,52.7276119 L35.270297,64.4664179 L41.0435644,64.4664179 L41.0435644,62.4776119 L37.5019802,62.4776119 L37.5019802,59.4216418 L40.0247525,59.4216418 L40.0247525,57.4328358 L37.5019802,57.4328358 L37.5019802,54.7649254 L40.8009901,54.7649254 L40.8009901,52.7276119 L35.270297,52.7276119 Z" id="Shape" sketch:type="MSShapeGroup"></path>
                <path d="M41.9653465,55.5895522 C41.9653465,57.4328358 43.1782178,58.5 44.2940594,59.3731343 C45.2158416,60.1492537 45.9920792,60.7798507 45.9920792,61.75 C45.9920792,62.3320896 45.6039604,62.6716418 44.9732673,62.6716418 C44.3910891,62.6716418 44.0029703,62.0895522 43.9544554,61.0708955 L43.9544554,60.9253731 L41.7712871,61.2164179 L41.7712871,61.3619403 C41.8683168,63.011194 42.8386139,64.6604478 44.8762376,64.6604478 C46.8653465,64.6604478 48.1267327,63.4962687 48.1267327,61.6044776 C48.1267327,59.8097015 46.8653465,58.6940299 45.749505,57.7723881 C44.8762376,57.0447761 44.1485149,56.4141791 44.1485149,55.6380597 C44.1485149,55.2014925 44.2940594,54.6679104 44.9732673,54.6679104 C45.2158416,54.6679104 45.7980198,54.7649254 45.8950495,55.7835821 L45.8950495,55.9291045 L48.0782178,55.6865672 L48.0782178,55.5410448 C47.8841584,53.7462687 46.8168317,52.630597 45.2158416,52.630597 C43.129703,52.5820896 41.9653465,53.6977612 41.9653465,55.5895522" id="Shape" sketch:type="MSShapeGroup"></path>
                <path d="M49.0485149,55.5895522 C49.0485149,57.4328358 50.2613861,58.5 51.3772277,59.3731343 C52.2990099,60.1492537 53.0752475,60.7798507 53.0752475,61.75 C53.0752475,62.3320896 52.7356436,62.6716418 52.0564356,62.6716418 C51.4742574,62.6716418 51.0861386,62.0895522 51.0376238,61.0708955 L51.0376238,60.9253731 L48.8544554,61.2164179 L48.8544554,61.3619403 C48.9514851,63.011194 49.9217822,64.6604478 51.9594059,64.6604478 C53.9485149,64.6604478 55.209901,63.4962687 55.209901,61.6044776 C55.209901,59.8097015 53.9485149,58.6940299 52.8326733,57.7723881 C51.9594059,57.0447761 51.2316832,56.4141791 51.2316832,55.6380597 C51.2316832,55.2014925 51.3772277,54.6679104 52.0564356,54.6679104 C52.2990099,54.6679104 52.8811881,54.7649254 52.9782178,55.7835821 L52.9782178,55.9291045 L55.1613861,55.6865672 L55.1613861,55.5410448 C54.9673267,53.7462687 53.8514851,52.630597 52.2990099,52.630597 C50.2128713,52.5820896 49.0485149,53.6977612 49.0485149,55.5895522" id="Shape" sketch:type="MSShapeGroup"></path>
                <path d="M61.9534653,53.0186567 L64.8643564,61.4589552 L64.9128713,61.4589552 L64.9128713,53.0186567 L66.1742574,53.0186567 L66.1742574,64.5149254 L64.8158416,64.5149254 L61.2742574,54.5223881 L61.2257426,54.5223881 L61.2257426,64.5149254 L60.0128713,64.5149254 L60.0128713,53.0186567 L61.9534653,53.0186567 Z" id="Shape" sketch:type="MSShapeGroup"></path>
                <path d="M73.0148515,53.0186567 L73.0148515,54.0858209 L68.9881188,54.0858209 L68.9881188,57.9664179 L71.9475248,57.9664179 L71.9475248,59.0335821 L68.9881188,59.0335821 L68.9881188,63.4477612 L73.2089109,63.4477612 L73.2089109,64.5149254 L67.7752475,64.5149254 L67.7752475,53.0186567 L73.0148515,53.0186567 Z" id="Shape" sketch:type="MSShapeGroup"></path>
                <path d="M75.0039604,53.0186567 L76.3623762,61.9925373 L76.4108911,61.9925373 L78.1089109,53.0186567 L79.1277228,53.0186567 L80.9227723,61.9925373 L82.2326733,53.0186567 L83.3485149,53.0186567 L81.5049505,64.5149254 L80.4376238,64.5149254 L78.6425743,55.4925373 L76.7990099,64.5149254 L75.780198,64.5149254 L73.839604,53.0186567 L75.0039604,53.0186567 Z" id="Shape" sketch:type="MSShapeGroup"></path>
                <path d="M88.5881188,55.9776119 C88.4910891,54.8134328 88.0059406,53.891791 86.8415842,53.891791 C85.8712871,53.891791 85.2891089,54.5223881 85.2891089,55.3955224 C85.2891089,57.9664179 89.8980198,58.0149254 89.8980198,61.7014925 C89.8980198,63.5447761 88.8792079,64.6119403 86.9871287,64.6119403 C85.1920792,64.6119403 84.1247525,63.3022388 84.0762376,61.3619403 L85.2405941,61.3619403 C85.2891089,62.7201493 85.919802,63.5447761 87.1326733,63.5447761 C88.1514851,63.5447761 88.8306931,62.8656716 88.8306931,61.6529851 C88.8306931,59.0335821 84.2217822,58.7425373 84.2217822,55.4925373 C84.2217822,53.8432836 85.3376238,52.8246269 86.9871287,52.8246269 C88.6366337,52.8246269 89.7524752,53.9402985 89.8009901,55.9291045 L88.5881188,55.9776119 L88.5881188,55.9776119 Z" id="Shape" sketch:type="MSShapeGroup"></path>
                <path d="M96.2049505,53.0186567 L99.1643564,61.4589552 L99.2128713,61.4589552 L99.2128713,53.0186567 L100.425743,53.0186567 L100.425743,64.5149254 L99.1158416,64.5149254 L95.5257426,54.5223881 L95.5257426,64.5149254 L94.2643564,64.5149254 L94.2643564,53.0186567 L96.2049505,53.0186567 Z" id="Shape" sketch:type="MSShapeGroup"></path>
                <path d="M107.314851,53.0186567 L107.314851,54.0858209 L103.288119,54.0858209 L103.288119,57.9664179 L106.247525,57.9664179 L106.247525,59.0335821 L103.288119,59.0335821 L103.288119,63.4477612 L107.460396,63.4477612 L107.460396,64.5149254 L102.075248,64.5149254 L102.075248,53.0186567 L107.314851,53.0186567 Z" id="Shape" sketch:type="MSShapeGroup"></path>
                <path d="M114.106931,53.0186567 L114.106931,54.0858209 L111.729703,54.0858209 L111.729703,64.5149254 L110.516832,64.5149254 L110.516832,54.0858209 L108.188119,54.0858209 L108.188119,53.0186567 L114.106931,53.0186567 Z" id="Shape" sketch:type="MSShapeGroup"></path>
                <path d="M115.465347,53.0186567 L116.823762,61.9925373 L116.872277,61.9925373 L118.570297,53.0186567 L119.589109,53.0186567 L121.384158,61.9925373 L122.645545,53.0186567 L123.809901,53.0186567 L121.966337,64.5149254 L120.89901,64.5149254 L119.10396,55.4925373 L119.055446,55.4925373 L117.260396,64.5149254 L116.241584,64.5149254 L114.30099,53.0186567 L115.465347,53.0186567 Z" id="Shape" sketch:type="MSShapeGroup"></path>
                <path d="M127.885149,64.6604478 C125.944554,64.6604478 124.634653,63.0597015 124.634653,58.7910448 C124.634653,54.5223881 125.944554,52.9216418 127.885149,52.9216418 C129.825743,52.9216418 131.135644,54.5223881 131.135644,58.7910448 C131.135644,63.011194 129.825743,64.6604478 127.885149,64.6604478 M127.885149,53.9402985 C126.769307,53.9402985 125.89604,54.9104478 125.89604,58.7910448 C125.89604,62.6716418 126.769307,63.641791 127.885149,63.641791 C129.00099,63.641791 129.874257,62.6716418 129.874257,58.7910448 C129.874257,54.8619403 129.00099,53.9402985 127.885149,53.9402985" id="Shape" sketch:type="MSShapeGroup"></path>
                <path d="M132.591089,53.0186567 L135.356436,53.0186567 C137.2,53.0186567 138.509901,54.0858209 138.509901,55.9776119 C138.509901,57.2873134 137.927723,58.3544776 136.666337,58.7910448 L138.606931,64.4664179 L137.29703,64.4664179 L135.453465,59.0335821 L133.852475,59.0820896 L133.852475,64.5149254 L132.591089,64.5149254 L132.591089,53.0186567 L132.591089,53.0186567 Z M133.80396,58.0634328 L134.871287,58.0634328 C136.617822,58.0634328 137.2,57.3843284 137.2,56.0746269 C137.2,54.8134328 136.617822,54.0858209 134.871287,54.0858209 L133.80396,54.0858209 L133.80396,58.0634328 L133.80396,58.0634328 Z" id="Shape" sketch:type="MSShapeGroup"></path>
                <path d="M141.614851,53.0186567 L141.614851,58.8880597 L144.816832,53.0186567 L146.175248,53.0186567 L143.943564,57.0447761 L146.563366,64.5149254 L145.253465,64.5149254 L143.118812,58.3059701 L143.070297,58.3059701 L141.614851,60.9738806 L141.614851,64.5149254 L140.353465,64.5149254 L140.353465,53.0186567 L141.614851,53.0186567 Z" id="Shape" sketch:type="MSShapeGroup"></path>
            </g>
        </g>
    </g>
</svg>