<?xml version="1.0" encoding="UTF-8" standalone="no"?>
<svg width="504px" height="52px" viewBox="0 0 504 52" version="1.1" xmlns="http://www.w3.org/2000/svg" xmlns:xlink="http://www.w3.org/1999/xlink" xmlns:sketch="http://www.bohemiancoding.com/sketch/ns">
    <!-- Generator: Sketch 3.4 (15588) - http://www.bohemiancoding.com/sketch -->
    <title>gmlogo_box_grey</title>
    <desc>Created with Sketch.</desc>
    <defs></defs>
    <g id="Page-1" stroke="none" stroke-width="1" fill="none" fill-rule="evenodd" sketch:type="MSPage">
        <g id="gmlogo_box_grey" sketch:type="MSLayerGroup">
            <path d="M0,0.869 L503.766,0.869 L503.766,52 L0,52 L0,0.869 Z" id="Fill-1" fill="#444441" sketch:type="MSShapeGroup"></path>
            <path d="M477.581,26.981 C477.581,26.981 476.942,26.788 476.851,27.513 C476.811,27.813 476.917,28.074 477.26,28.343 C477.325,28.393 477.442,28.433 477.526,28.439 C478.813,28.545 480.321,26.296 481.292,24.618 C481.733,23.852 481.899,23.597 482.102,23.597 C482.198,23.597 482.557,23.559 482.952,24.261 C483.483,25.19 486.135,27.843 489.518,27.115 C489.651,26.783 489.055,26.517 488.657,26.317 C488.657,26.317 487.264,25.19 489.055,24.66 C490.846,24.261 491.708,24.925 493.233,23.665 C493.299,23.267 492.436,23.067 492.436,23.067 C492.436,23.067 491.376,22.405 494.493,21.477 C496.02,21.077 496.02,20.812 495.754,20.613 C495.489,20.415 494.758,20.149 495.821,19.42 C496.948,18.69 497.676,17.694 497.612,17.363 C497.413,17.098 496.948,17.165 496.351,17.496 C495.688,17.827 494.825,17.629 494.362,16.899 C493.897,16.17 493.432,16.302 492.837,16.767 C492.239,17.231 491.046,17.894 490.514,16.767 C490.182,15.507 490.315,15.837 491.243,14.113 C492.172,12.389 492.372,10.995 492.372,10.729 C492.372,10.466 492.239,10.332 491.376,10.729 C490.647,10.93 490.581,7.216 490.514,6.685 C490.514,6.685 490.514,5.689 489.917,6.552 C489.452,7.148 487.596,8.94 486.999,9.139 C486.401,9.337 485.54,8.806 485.671,8.077 C485.671,7.347 485.208,7.612 485.008,8.077 C484.809,8.542 483.417,13.052 483.085,13.317 C482.753,13.582 482.487,14.245 481.892,13.118 C481.294,11.99 480.254,9.315 479.282,10.642 C479.017,10.376 477.315,8.077 475.922,8.011 C475.721,8.276 476.053,8.94 476.319,9.139 C476.585,9.471 476.585,10.399 476.319,11.062 C476.053,11.726 476.053,12.587 476.385,13.384 C476.585,13.783 476.319,14.445 475.192,14.577 C474.065,14.711 474.262,15.042 474.727,15.639 C475.192,16.235 476.917,17.694 477.315,18.226 C477.712,18.757 477.249,19.42 476.452,19.485 C475.657,19.552 474.926,19.286 474.727,19.751 C474.661,20.216 475.325,20.017 475.59,20.415 C475.59,20.415 477.049,23.067 478.971,22.935 C480.897,22.802 480.985,23.062 480.764,23.865 C480.571,24.562 479.02,26.813 477.581,26.981" id="Fill-2" fill="#FFFFFF" sketch:type="MSShapeGroup"></path>
            <path d="M244.866,34.078 L242.874,40.048 C242.36,41.499 241.335,42.559 240.14,42.559 L240.026,42.559 C240.823,42.279 241.618,41.107 242.018,39.937 L244.067,33.91 L244.866,34.078 L244.866,34.078 Z M224.943,9.58 L225.797,9.58 L225.797,42.67 L224.943,42.67 L224.943,9.58 Z M238.943,9.693 C240.026,9.693 240.766,10.474 241.278,12.203 L242.702,16.779 L242.874,17.337 L242.073,17.505 L240.426,12.314 C240.082,11.144 239.514,9.971 238.716,9.693 L238.943,9.693 L238.943,9.693 Z M241.448,38.764 C240.596,41.331 239.457,42.67 237.407,42.67 L230.977,42.67 C230.92,42.67 230.92,42.001 230.92,27.604 L240.367,27.604 L240.367,24.703 L230.92,24.703 L230.92,9.58 L235.758,9.58 C238.034,9.637 238.831,10.361 239.514,12.538 L241.448,18.621 L244.694,18.007 L244.694,7.237 L220.447,7.237 L220.447,9.58 L223.977,9.58 L223.977,42.67 L220.447,42.67 L220.447,45.015 L245.889,45.015 L246.686,33.408 L243.499,32.795 L241.448,38.764 L241.448,38.764 Z M180.15,42.559 C179.355,42.894 179.355,42.726 179.924,42.336 C184.022,39.546 184.989,33.129 184.989,26.656 C184.989,20.184 183.908,13.208 179.924,10.25 C179.355,9.86 179.355,9.693 180.15,10.027 C185.389,12.538 185.9,22.024 185.9,26.49 C185.9,31.846 185.445,40.048 180.15,42.559 L180.15,42.559 Z M167.459,26.153 C167.459,15.217 169.85,9.804 175.711,9.804 C180.891,9.804 184.022,15.217 184.022,26.153 C184.022,37.09 181.631,42.447 175.711,42.447 C170.59,42.447 167.459,37.09 167.459,26.153 L167.459,26.153 Z M168.541,42.783 C163.02,39.043 161.027,32.795 161.027,26.711 C161.027,20.071 163.19,13.71 168.541,9.804 C168.94,9.58 169.395,9.358 169.166,9.804 L168.541,10.361 C164.102,14.325 161.939,20.629 161.939,26.711 C161.939,32.795 164.102,38.485 168.541,42.279 L169.166,42.783 C169.395,43.229 168.94,43.006 168.541,42.783 L168.541,42.783 Z M157.271,40.048 C156.873,41.331 156.076,42.336 155.336,42.559 L154.369,42.559 C155.166,42.279 156.02,41.107 156.417,39.937 L158.354,33.798 L159.15,33.965 L157.271,40.048 L157.271,40.048 Z M141.051,9.58 L141.904,9.58 L141.904,42.67 L141.051,42.67 L141.051,9.58 Z M175.711,6.848 C165.41,6.848 160.061,16.054 160.061,26.6 C160.061,28.923 160.296,31.061 160.737,33.008 L157.783,32.459 L155.85,38.709 C155.108,41.053 153.8,42.67 151.523,42.67 L147.083,42.67 C147.027,42.67 147.027,41.163 147.027,9.58 L150.556,9.58 L150.556,7.237 L136.725,7.237 L136.725,9.58 L140.082,9.58 L140.082,42.67 L136.27,42.67 L136.27,45.015 L160.174,45.015 L161.008,34.079 C162.994,41.211 168.074,45.404 175.711,45.404 C186.071,45.404 191.42,36.254 191.42,25.707 C191.42,14.101 185.787,6.848 175.711,6.848 L175.711,6.848 Z M129.213,32.235 L130.067,32.235 L130.067,41.387 L129.213,41.609 L129.213,32.235 L129.213,32.235 Z M115.723,42.559 C110.202,38.764 108.21,32.905 108.21,26.711 C108.324,20.127 110.885,13.6 116.405,9.971 C117.146,9.469 117.146,9.804 117.031,9.971 L116.35,10.529 C111.796,14.325 109.121,20.629 109.121,26.711 C109.121,32.795 111.112,38.263 115.666,42.001 L116.35,42.559 C116.576,43.006 116.121,42.783 115.723,42.559 L115.723,42.559 Z M125.911,9.916 C126.879,9.916 128.131,10.863 128.928,12.37 C129.553,13.654 130.236,15.16 131.318,19.234 L130.465,19.401 C129.383,15.552 128.758,13.822 127.959,12.26 C127.334,10.977 126.139,10.084 125.797,9.916 L125.911,9.916 L125.911,9.916 Z M124.09,32.235 L128.244,32.235 L128.244,41.833 C126.879,42.225 125.569,42.279 123.975,42.279 C118.91,42.279 114.641,37.648 114.641,25.651 C114.641,16.668 118,9.86 122.951,9.86 C126.822,9.86 128.188,14.603 129.781,20.517 L133.537,19.848 L133.537,9.916 C130.465,7.74 127.675,6.958 123.748,6.958 C113.617,6.958 107.242,16.556 107.242,26.711 C107.242,39.491 114.129,45.404 123.463,45.404 C125.967,45.404 129.496,44.623 131.887,43.73 L135.018,43.452 L135.018,29.836 L124.09,29.836 L124.09,32.235 L124.09,32.235 Z M212.936,41.163 C212.481,41.777 211.455,42.392 210.601,42.559 L210.43,42.559 C212.423,41.499 213.504,38.987 213.504,35.641 C213.504,31.957 212.195,28.219 209.918,27.047 L210.032,27.047 C211,27.213 212.137,27.939 212.764,28.888 C213.847,30.563 214.414,33.017 214.414,35.641 C214.414,38.096 213.902,39.937 212.936,41.163 L212.936,41.163 Z M206.561,42.67 L203.089,42.67 C202.52,42.67 202.52,42.057 202.52,41.331 L202.52,26.991 L207.301,26.991 C210.943,27.213 212.536,31.008 212.536,35.641 C212.536,40.494 210.373,42.67 206.561,42.67 L206.561,42.67 Z M196.543,9.58 L197.397,9.58 L197.397,42.67 L196.543,42.67 L196.543,9.58 Z M202.52,9.58 L206.049,9.58 C209.405,9.58 211.113,13.208 211.113,17.729 C211.113,21.467 209.576,24.535 206.844,24.535 L202.52,24.535 L202.52,9.58 L202.52,9.58 Z M209.121,9.693 C209.918,9.86 210.601,10.361 211,10.809 C212.309,12.37 212.991,14.938 212.991,17.729 C212.991,19.736 212.594,21.634 211.74,22.974 C211.342,23.587 210.261,24.367 209.463,24.48 L209.35,24.48 C211.171,23.42 212.08,20.575 212.08,17.729 C212.08,14.268 211.057,10.92 209.008,9.693 L209.121,9.693 L209.121,9.693 Z M211.399,25.54 C216.35,23.866 218.114,20.238 218.114,16.945 C218.114,10.863 214.131,7.237 207.13,7.237 L191.819,7.237 L191.819,9.58 L195.576,9.58 L195.576,42.67 L191.819,42.67 L191.819,45.015 L207.926,45.015 C215.155,45.015 219.879,40.996 219.879,35.138 C219.879,30.172 216.805,26.266 211.399,25.54 L211.399,25.54 Z M341.905,39.601 C340.879,40.996 339.172,42.447 337.352,42.616 L337.124,42.616 C343.272,40.104 343.954,31.789 343.954,26.656 C343.954,21.968 343.1,17.895 341.335,14.77 C340.085,12.482 338.378,10.586 336.098,9.637 L336.27,9.637 C337.352,9.748 338.661,10.529 339.458,11.144 C343.213,14.213 344.866,19.959 344.866,26.49 C344.866,31.287 344.237,36.365 341.905,39.601 L341.905,39.601 Z M332.569,42.67 L331.772,42.67 C330.862,42.67 330.463,42.057 330.463,40.996 L330.463,9.58 L331.147,9.58 C334.163,9.58 335.301,10.084 336.497,10.753 C340.879,13.319 342.987,20.016 342.987,26.824 C342.987,34.635 340.879,39.322 337.751,41.331 C336.612,42.057 335.471,42.67 332.569,42.67 L332.569,42.67 Z M324.432,9.58 L325.284,9.58 L325.284,42.67 L324.432,42.67 L324.432,9.58 Z M313.104,43.676 L293.128,12.65 C292.616,11.869 291.534,10.361 290.965,9.804 L291.021,9.693 L292.104,9.86 C292.104,9.86 293.583,11.813 294.323,12.984 L313.104,42.112 L313.104,43.676 L313.104,43.676 Z M280.266,42.67 L271.1,13.208 L271.557,11.59 L281.12,42.67 L280.266,42.67 L280.266,42.67 Z M266.606,28.609 L270.647,14.883 L274.915,28.609 L266.606,28.609 L266.606,28.609 Z M333.424,7.237 L308.608,7.237 L308.608,9.58 C313.276,9.58 313.333,12.203 313.333,13.654 L313.333,32.125 C308.495,24.48 297.794,8.297 297.227,7.237 L287.778,7.237 L287.778,9.414 C289.6,9.58 291.249,11.59 292.331,13.208 L292.331,38.653 C292.331,40.848 292.18,42.383 289.544,42.717 L289.544,42.67 L286.754,42.67 L275.94,7.237 L270.421,7.237 C269.053,12.816 260.858,38.709 260.858,38.709 C260.004,41.22 258.809,42.67 256.362,42.67 L256.362,45.015 L267.518,45.015 L267.518,42.67 C263.478,42.336 263.362,41.22 264.159,37.648 C264.442,36.421 264.899,34.58 265.753,31.455 L275.771,31.455 C276.852,34.971 278.104,38.709 279.241,42.67 L275.94,42.67 L275.94,45.015 L300.413,45.015 L300.413,42.67 C295.12,42.616 295.004,40.439 295.004,38.653 L295.004,17.281 L312.878,45.015 L315.895,45.015 C315.895,43.062 316.008,40.662 316.008,38.263 L316.008,13.654 C316.008,11.087 316.749,9.58 320.276,9.58 L323.463,9.58 L323.463,42.67 L319.706,42.67 L319.706,45.015 L333.424,45.015 C344.126,45.015 350.329,36.03 350.329,25.651 C350.329,14.883 344.296,7.237 333.424,7.237 L333.424,7.237 Z M470.874,40.048 C470.475,41.331 469.68,42.336 468.938,42.559 L467.971,42.559 C468.768,42.279 469.622,41.107 470.02,39.937 L471.956,33.798 L472.753,33.965 L470.874,40.048 L470.874,40.048 Z M454.653,9.58 L455.506,9.58 L455.506,42.67 L454.653,42.67 L454.653,9.58 Z M471.385,32.459 L469.452,38.709 C468.712,41.053 467.403,42.67 465.126,42.67 L460.686,42.67 C460.628,42.67 460.628,41.163 460.628,9.58 L464.157,9.58 L464.157,7.237 L450.807,7.237 L450.807,9.58 L453.686,9.58 L453.686,42.67 L450.807,42.67 L450.807,45.015 L473.776,45.015 L474.688,33.072 L471.385,32.459 L471.385,32.459 Z M439.458,9.58 L440.311,9.58 L440.311,42.67 L439.458,42.67 L439.458,9.58 Z M425.856,42.67 L416.692,13.208 L417.147,11.59 L426.71,42.67 L425.856,42.67 L425.856,42.67 Z M412.196,28.609 L416.237,14.883 L420.504,28.609 L412.196,28.609 L412.196,28.609 Z M392.616,42.67 L390.739,12.26 L391.477,10.194 L393.469,42.67 L392.616,42.67 L392.616,42.67 Z M379.924,37.537 L369.963,12.314 L370.02,10.25 L380.379,36.421 L379.924,37.537 L379.924,37.537 Z M445.491,9.58 L448.962,9.58 L448.962,7.237 L434.96,7.237 L434.96,9.58 L438.489,9.58 L438.489,42.67 L432.342,42.67 L421.53,7.237 L416.008,7.237 C414.643,12.816 406.446,38.709 406.446,38.709 C405.592,41.22 404.397,42.67 401.95,42.67 L398.536,42.67 L397.51,19.736 C397.284,14.659 397.227,13.376 397.227,12.594 C397.227,10.474 397.456,10.027 400.926,9.58 L400.926,7.237 L390.51,7.237 C388.462,12.706 385.389,21.912 382.94,28.775 C378.503,17.672 374.518,7.237 374.518,7.237 L363.305,7.237 L363.305,9.58 C367.174,10.307 367.516,9.916 367.516,13.6 L367.516,14.045 C367.174,20.741 366.434,32.515 365.922,39.491 C365.809,41.163 365.296,42.001 361.768,42.838 L361.768,45.015 L373.264,45.015 L373.264,42.783 C369.223,42.112 368.997,40.717 368.997,39.491 C368.997,38.43 369.395,28.775 369.678,21.076 L369.907,14.715 L379.981,40.216 L381.46,39.546 L389.94,14.492 L391.649,42.67 L387.837,42.67 L387.837,45.015 L413.106,45.015 L413.106,42.67 C409.065,42.336 408.952,41.22 409.747,37.648 C410.032,36.421 410.487,34.58 411.342,31.455 L421.358,31.455 C422.44,34.971 423.692,38.709 424.829,42.67 L421.53,42.67 L421.53,45.015 L449.024,45.015 L449.024,42.67 L445.491,42.67 L445.491,9.58 L445.491,9.58 Z M93.754,34.078 L91.762,40.048 C91.25,41.499 90.225,42.559 89.029,42.559 L88.916,42.559 C89.713,42.279 90.51,41.107 90.908,39.937 L92.957,33.91 L93.754,34.078 L93.754,34.078 Z M73.833,9.58 L74.688,9.58 L74.688,42.67 L73.833,42.67 L73.833,9.58 Z M58.693,9.58 L59.547,9.58 L59.547,42.67 L58.693,42.67 L58.693,9.58 Z M39.627,9.58 L40.482,9.58 L40.482,42.67 L39.627,42.67 L39.627,9.58 Z M32.685,17.505 L31.034,11.98 C30.693,10.809 30.294,9.637 29.497,9.358 L30.123,9.358 C30.92,9.469 31.489,10.697 31.831,11.869 L33.482,17.337 L32.685,17.505 L32.685,17.505 Z M18.227,9.469 L19.081,9.469 L19.081,42.67 L18.227,42.67 L18.227,9.469 Z M7.925,17.392 L7.129,17.281 L7.471,8.801 L8.267,8.855 L7.925,17.392 L7.925,17.392 Z M87.834,9.693 C88.916,9.693 89.656,10.474 90.168,12.203 L91.592,16.779 L91.762,17.337 L90.965,17.505 L89.315,12.314 C88.973,11.144 88.404,9.971 87.607,9.693 L87.834,9.693 L87.834,9.693 Z M90.339,38.764 C89.485,41.331 88.347,42.67 86.298,42.67 L79.867,42.67 C79.81,42.67 79.81,42.001 79.81,27.604 L89.258,27.604 L89.258,24.703 L79.81,24.703 L79.81,9.58 L84.648,9.58 C86.924,9.637 87.721,10.361 88.404,12.538 L90.339,18.621 L93.582,18.007 L93.582,7.237 L69.337,7.237 L69.337,9.58 L72.865,9.58 L72.865,42.67 L64.728,42.67 L64.728,9.58 L68.256,9.58 L68.256,7.237 L54.254,7.237 L54.254,9.58 L57.727,9.58 L57.727,24.703 L45.604,24.703 L45.604,9.58 L49.132,9.58 L49.132,7.237 L6.56,7.237 L6.161,18.007 L9.405,18.621 L11.341,11.98 C11.967,9.804 12.65,9.469 14.87,9.469 L17.261,9.469 L17.261,42.67 L12.763,42.67 L12.763,45.015 L28.7,45.015 L28.7,42.67 L24.204,42.67 L24.204,9.469 L26.595,9.469 C29.042,9.469 29.384,9.748 30.066,11.925 L32.058,18.621 L35.302,18.007 L35.302,9.58 L38.659,9.58 L38.659,42.67 L35.13,42.67 L35.13,45.015 L49.132,45.015 L49.132,42.67 L45.604,42.616 L45.604,27.549 L57.727,27.549 L57.727,42.67 L54.254,42.67 L54.254,45.015 L94.778,45.015 L95.574,33.408 L92.388,32.795 L90.339,38.764 L90.339,38.764 Z" id="Fill-3" fill="#FFFFFF" sketch:type="MSShapeGroup"></path>
        </g>
    </g>
</svg>