<?xml version="1.0" encoding="utf-8"?>
<!-- Generator: Adobe Illustrator 19.1.0, SVG Export Plug-In . SVG Version: 6.00 Build 0)  -->
<!DOCTYPE svg PUBLIC "-//W3C//DTD SVG 1.1//EN" "http://www.w3.org/Graphics/SVG/1.1/DTD/svg11.dtd">
<svg version="1.1" id="Layer_1" xmlns="http://www.w3.org/2000/svg" xmlns:xlink="http://www.w3.org/1999/xlink" x="0px" y="0px"
	 viewBox="152.6 242.8 308.7 308.5" enable-background="new 152.6 242.8 308.7 308.5" xml:space="preserve">
<g>
	<path fill="#FFFFFF" d="M152.6,551.3c103.3,0,206,0,308.7,0c0-103.1,0-205.8,0-308.5c-103.1,0-205.8,0-308.7,0
		C152.6,345.7,152.6,448.3,152.6,551.3z"/>
	<path fill="#4B4B4B" d="M152.6,551.3c0-103,0-205.5,0-308.5c102.9,0,205.6,0,308.7,0c0,102.7,0,205.4,0,308.5
		C358.5,551.3,255.8,551.3,152.6,551.3z M348.3,408.2c4.3,0,8.1,0.1,11.9,0c19-0.5,32.5-9.4,40.2-26.8c4.9-10.9,5.9-22.6,4.5-34.2
		c-2.7-22.1-17.3-34.4-39.6-34.5c-15.8,0-31.6,0.1-47.5-0.1c-3.9,0-5.1,1.2-5.3,5.1c-0.2,4.4,2.4,4.8,5.5,5.5
		c9.2,2,11,4.1,11.5,13.4c0.1,1.3,0,2.7,0,4c0,31.6,0,63.3,0,94.9c0,7.5,0.1,15,0,22.5c-0.2,8.7-2.4,11.5-9.8,13.1
		c-6.9,1.5-7.2,2.2-5.3,9.8c16.9,0,33.7,0,50.6,0c0.9-8.1,0.9-8.1-6.2-9.7c-8.3-1.8-10.4-4.3-10.4-13.1c-0.1-11,0-22,0-33
		C348.3,419.8,348.3,414.3,348.3,408.2z M303.1,313c-1.7-0.1-3.2-0.3-4.6-0.3c-27.8,0-55.7,0-83.5,0c-2,0-5.1-1.2-5.3,2.6
		c-0.2,3.4-0.9,6.7,4.2,7.9c10.7,2.6,12.7,5.6,12.7,16.4c0,38.8,0,77.7,0,116.5c0,11.6-2,14-13.4,15.4c-2.9,0.3-3.8,1.5-3.6,4.1
		c0.1,1.8,0.2,3.5,0.3,5.6c16,0,31.5-0.2,47,0.1c4.7,0.1,5.7-1.7,5.4-5.8c-0.2-2.7-1.2-3.5-3.8-4.2c-11.6-2.9-13.2-5.2-13.2-17.3
		c0-16,0-32,0-48c0-1.8,0-3.5,0-5.7c6.3,0,11.9-0.4,17.5,0.1c5.8,0.5,10,4,11.6,9.6c1.5,4.9,2.4,10,3.2,15.1
		c0.4,2.8,1.3,4.1,4.3,4.1c2.9,0,3.8-1.4,3.8-3.9c0-19.8,0-39.7,0-59.5c0-2.6-0.8-4-3.8-4s-3.9,1.3-4.3,4.2c-0.6,4.4-1.2,9-3,13
		c-1.6,3.4-4.4,7-7.6,8.6c-6.7,3.2-14.1,2.2-21.3,1.7c0-22.2,0-43.8,0-65.7c9.9,0,19.5,0,29.1,0c5.6,0,9.5,3.2,11.8,7.9
		c3.3,6.9,6.4,13.9,9,21c1,2.9,2.4,3.6,5,3.5c3.2-0.1,3.2-2.3,3.2-4.5c0-11.5,0-23,0-34.5C303.7,315.8,303.4,314.5,303.1,313z"/>
	<path fill="#FFFFFF" d="M348.3,408.2c0,6.1,0,11.6,0,17c0,11-0.1,22,0,33c0.1,8.8,2.1,11.3,10.4,13.1c7.2,1.5,7.2,1.5,6.2,9.7
		c-16.8,0-33.7,0-50.6,0c-2-7.6-1.6-8.4,5.3-9.8c7.5-1.6,9.6-4.4,9.8-13.1c0.2-7.5,0-15,0-22.5c0-31.6,0-63.3,0-94.9
		c0-1.3,0.1-2.7,0-4c-0.5-9.3-2.3-11.4-11.5-13.4c-3-0.7-5.6-1.1-5.5-5.5c0.1-3.9,1.3-5.2,5.3-5.1c15.8,0.2,31.6,0.1,47.5,0.1
		c22.4,0,37,12.4,39.6,34.5c1.4,11.6,0.4,23.3-4.5,34.2c-7.8,17.4-21.2,26.3-40.2,26.8C356.5,408.3,352.7,408.2,348.3,408.2z
		 M348.3,396.2c19,2.4,29.5-4.7,33.7-22.4c2.7-11.4,2-22.8-1.5-34s-10.6-16.1-22.3-16.4c-1.8,0-3.7,0.2-5.5,0
		c-3.6-0.4-4.5,1.2-4.5,4.6c0.1,18.8,0.1,37.7,0.1,56.5C348.3,388.3,348.3,392.1,348.3,396.2z"/>
	<path fill="#FFFFFF" d="M303.1,313c0.2,1.5,0.6,2.8,0.6,4.1c0,11.5,0,23,0,34.5c0,2.2,0,4.5-3.2,4.5c-2.6,0-4-0.7-5-3.5
		c-2.6-7.2-5.7-14.2-9-21c-2.3-4.7-6.2-7.9-11.8-7.9c-9.6-0.1-19.2,0-29.1,0c0,21.9,0,43.5,0,65.7c7.2,0.5,14.6,1.5,21.3-1.7
		c3.2-1.6,6-5.2,7.6-8.6c1.9-3.9,2.4-8.6,3-13c0.4-2.9,1.4-4.1,4.3-4.2c2.9,0,3.8,1.5,3.8,4c0,19.8,0,39.7,0,59.5
		c0,2.6-0.8,3.9-3.8,3.9s-3.9-1.3-4.3-4.1c-0.7-5.1-1.7-10.2-3.2-15.1c-1.7-5.6-5.8-9.1-11.6-9.6c-5.6-0.5-11.2-0.1-17.5-0.1
		c0,2.2,0,3.9,0,5.7c0,16,0,32,0,48c0,12.1,1.6,14.4,13.2,17.3c2.6,0.6,3.6,1.5,3.8,4.2c0.3,4.1-0.7,5.9-5.4,5.8
		c-15.5-0.3-30.9-0.1-47-0.1c-0.1-2.1-0.2-3.9-0.3-5.6c-0.2-2.6,0.7-3.8,3.6-4.1c11.4-1.4,13.4-3.8,13.4-15.4c0-38.8,0-77.7,0-116.5
		c0-10.8-2.1-13.8-12.7-16.4c-5.1-1.2-4.3-4.5-4.2-7.9c0.2-3.9,3.3-2.6,5.3-2.6c27.8-0.1,55.7-0.1,83.5,0
		C300,312.7,301.4,312.9,303.1,313z"/>
	<path fill="#4B4B4B" d="M348.3,396.2c0-4.1,0-7.9,0-11.7c0-18.8,0.1-37.7-0.1-56.5c0-3.4,0.9-5,4.5-4.6c1.8,0.2,3.7,0,5.5,0
		c11.7,0.3,18.8,5.2,22.3,16.4c3.5,11.1,4.2,22.5,1.5,34C377.9,391.4,367.3,398.5,348.3,396.2z"/>
</g>
</svg>
