<?xml version="1.0" encoding="UTF-8" standalone="no"?>
<svg width="320px" height="637px" viewBox="0 0 320 637" version="1.1" xmlns="http://www.w3.org/2000/svg" xmlns:xlink="http://www.w3.org/1999/xlink" xmlns:sketch="http://www.bohemiancoding.com/sketch/ns">
    <!-- Generator: Sketch 3.5.2 (25235) - http://www.bohemiancoding.com/sketch -->
    <title>iphone</title>
    <desc>Created with Sketch.</desc>
    <defs></defs>
    <g id="Page-1" stroke="none" stroke-width="1" fill="none" fill-rule="evenodd" sketch:type="MSPage">
        <g id="iphone" sketch:type="MSLayerGroup">
            <g id="Group">
                <rect id="Rectangle-path" fill="#222222" sketch:type="MSShapeGroup" x="0" y="0.01" width="320" height="636.99" rx="50"></rect>
                <path d="M8,83 L312,83 L312,461 L8,461 L8,83 Z" id="Shape" fill="#FFFFFF" sketch:type="MSShapeGroup"></path>
                <circle id="Oval" opacity="0.1" fill="#FFFFFF" sketch:type="MSShapeGroup" cx="115" cy="43.01" r="7"></circle>
                <rect id="Rectangle-path" opacity="0.1" fill="#FFFFFF" sketch:type="MSShapeGroup" x="132" y="40.01" width="56" height="6" rx="50"></rect>
                <text id="$44.566" fill="#FFFFFF" sketch:type="MSTextLayer" font-family="Futura Std" font-size="14" font-weight="313">
                    <tspan x="239" y="333" fill="#000000">$44.566</tspan>
                </text>
                <g transform="translate(7.000000, 83.000000)">
                    <path d="M0.703,0 L304.783,0 L304.783,477.023 L0.703,477.023 L0.703,0 Z" id="Shape" fill="#FFFFFF" sketch:type="MSShapeGroup"></path>
                    <path d="M1,0 L305.08,0 L305.08,64.99 L1,64.99 L1,0 Z" id="Shape" fill="#FAB131" sketch:type="MSShapeGroup"></path>
                    <ellipse id="Oval" opacity="0.1" fill="#FFFFFF" sketch:type="MSShapeGroup" cx="110.172" cy="159.632" rx="2.838" ry="2.843"></ellipse>
                    <rect id="Rectangle-path" opacity="0.1" fill="#FFFFFF" sketch:type="MSShapeGroup" x="117.065" y="158.413" width="22.705" height="2.437" rx="20.272"></rect>
                    <path d="M0.703,269.905 L35.896,269.228 L42.876,275.098 L49.866,261.678 L58.858,270.905 L83.831,244.905 L94.821,246.582 L102.811,234.839 L118.795,234.839 L123.789,228.967 L127.785,233.161 L142.769,228.128 L148.763,221.418 L154.756,223.095 L162.748,228.127 L166.900403,219.168568 L176.733,228.965 L176.733,243.225 C176.733,246.579 184.723,252.45 184.723,252.45 L189.719,240.708 L200.707,235.676 L203.704,226.45 L206.701,215.546 L217.689,219.74 L223.683,209.675 L236.669,195.417 L245.659,197.932 L250.654,190.382 L256.648,197.092 L259.645,188.706 L267.635,191.221 L279.623,181.156 L290.613,181.156 L305.596,187.026 L305.596,292.452 L0.703,292.452" id="Shape" opacity="0.4" fill="#7CB7B6" sketch:type="MSShapeGroup"></path>
                    <path d="M0.703,269.303 L35.323,269.506 L42.307,275.396 L49.304,261.933 L58.3,271.189 L83.29,245.105 L94.284,246.787 L102.28,235.007 L118.273,235.007 L123.271,229.117 L127.271,233.325 L142.263,228.277 L148.261,221.547 L154.258,223.227 L162.254,228.277 L166.823384,219.220204 L176.248,229.117 L176.248,243.422 C176.248,246.787 184.244,252.677 184.244,252.677 L189.242,240.897 L200.238,235.849 L203.238,226.594 L206.236,215.656 L217.231,219.863 L223.227,209.766 L236.221,195.463 L245.217,197.987 L250.215,190.414 L256.212,197.144 L259.212,188.731 L267.208,191.256 L279.2,181.16 L290.196,181.16 L305.189,186.208" id="Shape" stroke="#7CB7B6" stroke-width="0.811" sketch:type="MSShapeGroup"></path>
                    <g transform="translate(11.000000, 412.000000)" id="High-Yield-Bonds" font-size="12.974" font-family="Futura Std" fill="#222222" sketch:type="MSTextLayer" font-weight="313">
                        <text>
                            <tspan x="0.65" y="11.281" fill="#000000">High Yield Bonds</tspan>
                        </text>
                    </g>
                    <g transform="translate(43.000000, 370.000000)" id="*ALL-CURRENCIES-ARE-DISPLAYED-IN-CANADIAN-DOLLARS" font-size="8.109" font-family="Futura Std" fill="#222222" sketch:type="MSTextLayer" font-weight="313">
                        <text>
                            <tspan x="0.327" y="7.85" fill="#000000">*ALL CURRENCIES ARE DISPLAYED IN CANADIAN DOLLARS</tspan>
                        </text>
                    </g>
                    <g transform="translate(255.000000, 162.000000)" id="$45,098" font-size="8.92" font-family="Futura Std" fill="#222222" sketch:type="MSTextLayer" font-weight="313">
                        <text>
                            <tspan x="0.725" y="7.475" fill="#000000">$45,098</tspan>
                        </text>
                    </g>
                    <g transform="translate(255.000000, 273.000000)" id="$30,000" font-size="8.92" font-family="Futura Std" fill="#222222" sketch:type="MSTextLayer" font-weight="313">
                        <text>
                            <tspan x="0.32" y="7.365" fill="#000000">$30,000</tspan>
                        </text>
                    </g>
                    <path d="M16.92,398.065 L292.62,398.065 L292.62,406.189 L16.92,406.189 L16.92,398.065 Z" id="Shape" opacity="0.05" fill="#000000" sketch:type="MSShapeGroup"></path>
                    <path d="M12.867,398.065 L98.01,398.065 L98.01,406.189 L12.866,406.189 L12.867,398.065 Z" id="Shape" fill="#75B5B5" sketch:type="MSShapeGroup"></path>
                    <g transform="translate(5.000000, 4.000000)" fill="#FFFFFF">
                        <path d="M3.204,6.56 C4.436,6.56 5.434,5.56 5.434,4.327 C5.434,3.093 4.436,2.093 3.204,2.093 C1.972,2.093 0.974,3.093 0.974,4.327 C0.974,5.561 1.972,6.561 3.204,6.561 L3.204,6.56 Z M8.88,6.56 C10.112,6.56 11.11,5.56 11.11,4.327 C11.11,3.093 10.112,2.093 8.88,2.093 C7.65,2.093 6.65,3.093 6.65,4.327 C6.65,5.561 7.65,6.561 8.88,6.561 L8.88,6.56 Z M14.556,6.56 C15.788,6.56 16.786,5.56 16.786,4.327 C16.786,3.093 15.788,2.093 14.556,2.093 C13.326,2.093 12.326,3.093 12.326,4.327 C12.326,5.561 13.326,6.561 14.556,6.561 L14.556,6.56 Z M20.233,6.56 C21.463,6.56 22.463,5.56 22.463,4.327 C22.463,3.093 21.463,2.093 20.233,2.093 C19.001,2.093 18.003,3.093 18.003,4.327 C18.003,5.561 19.001,6.561 20.233,6.561 L20.233,6.56 Z M20.233,6.155 C21.24,6.155 22.057,5.335 22.057,4.327 C22.057,3.317 21.24,2.499 20.233,2.499 C19.225,2.499 18.408,3.316 18.408,4.326 C18.408,5.336 19.225,6.154 20.233,6.154 L20.233,6.155 Z M25.909,6.561 C27.139,6.561 28.139,5.561 28.139,4.328 C28.139,3.094 27.139,2.094 25.909,2.094 C24.676,2.094 23.679,3.094 23.679,4.328 C23.679,5.562 24.676,6.562 25.909,6.562 L25.909,6.561 Z M25.909,6.156 C26.915,6.156 27.732,5.336 27.732,4.328 C27.732,3.318 26.915,2.5 25.908,2.5 C24.898,2.5 24.082,3.317 24.082,4.327 C24.082,5.337 24.899,6.155 25.907,6.155 L25.909,6.156 Z" id="Shape" sketch:type="MSShapeGroup"></path>
                        <g transform="translate(30.703000, 0.000000)" id="WealthFi" font-size="7.48321305" font-family="Helvetica Neue" sketch:type="MSTextLayer" font-weight="420">
                            <text>
                                <tspan x="0.679" y="7.843">WealthFi</tspan>
                            </text>
                        </g>
                        <path d="M71.665,6.105 C71.245,5.623 70.617,5.317 69.915,5.317 C69.228,5.317 68.61,5.612 68.191,6.077 L69.945,7.779 L71.665,6.104 L71.665,6.105 Z M73.432,4.385 C72.557,3.467 71.305,2.893 69.916,2.893 C68.538,2.893 67.296,3.457 66.422,4.363 L67.306,5.219 C67.953,4.533 68.883,4.104 69.916,4.104 C70.961,4.104 71.901,4.544 72.549,5.244 L73.431,4.384 L73.432,4.385 Z M75.197,2.667 C73.869,1.312 71.994,0.467 69.917,0.467 C67.847,0.467 65.981,1.304 64.655,2.647 L65.539,3.504 C66.639,2.381 68.192,1.68 69.915,1.68 C71.649,1.68 73.212,2.39 74.313,3.526 L75.196,2.666 L75.197,2.667 Z" id="Shape" sketch:type="MSShapeGroup"></path>
                        <g transform="translate(133.703000, 1.000000)" id="9:41-AM" font-size="7.48321305" font-family="Helvetica Neue" sketch:type="MSTextLayer" font-weight="420">
                            <text>
                                <tspan x="0" y="7">9:41 AM</tspan>
                            </text>
                        </g>
                        <g transform="translate(252.703000, 0.000000)" id="100%" font-size="7.48321305" font-family="Helvetica Neue" sketch:type="MSTextLayer" font-weight="420">
                            <text>
                                <tspan x="0.524" y="7.843">100%</tspan>
                            </text>
                        </g>
                        <path d="M276.064,0.468 C275.729,0.468 275.457,0.743 275.457,1.074 L275.457,7.58 C275.457,7.915 275.729,8.186 276.064,8.186 L293.094,8.186 C293.43,8.186 293.702,7.911 293.702,7.58 L293.702,1.074 C293.702,0.739 293.43,0.468 293.095,0.468 L276.065,0.468 L276.064,0.468 Z M294.107,2.905 L294.107,5.75 L294.912,5.75 C295.139,5.75 295.322,5.562 295.322,5.34 L295.322,3.314 C295.322,3.089 295.132,2.906 294.912,2.906 L294.107,2.906 L294.107,2.905 Z M276.259,0.875 C276.039,0.875 275.861,1.059 275.861,1.285 L275.861,7.368 C275.861,7.595 276.034,7.778 276.258,7.778 L292.898,7.778 C293.118,7.778 293.294,7.595 293.294,7.368 L293.294,1.286 C293.294,1.058 293.122,0.874 292.897,0.874 L276.257,0.874 L276.259,0.875 Z M276.477,1.28 C276.361,1.28 276.267,1.367 276.267,1.483 L276.267,7.171 C276.267,7.284 276.357,7.374 276.477,7.374 L292.68,7.374 C292.797,7.374 292.89,7.288 292.89,7.172 L292.89,1.484 C292.89,1.372 292.8,1.281 292.68,1.281 L276.48,1.281 L276.477,1.28 Z" id="Shape" sketch:type="MSShapeGroup"></path>
                    </g>
                    <g transform="translate(138.000000, 32.000000)" id="TFSA" font-size="14.596" font-family="Futura Std" fill="#FFFFFF" sketch:type="MSTextLayer" font-weight="633">
                        <text>
                            <tspan x="0.959" y="12.495">TFSA</tspan>
                        </text>
                    </g>
                    <g transform="translate(12.000000, 73.000000)" id="TOTAL-PORTFOLIO-VALU" font-size="8.92" font-family="Futura Std" fill="#000000" sketch:type="MSTextLayer" font-weight="313">
                        <text>
                            <tspan x="0.461" y="7.926">TOTAL PORTFOLIO VALUE</tspan>
                        </text>
                    </g>
                    <g transform="translate(12.460000, 22.747000)" stroke="#FFFFFF" sketch:type="MSShapeGroup">
                        <ellipse id="Oval" stroke-width="0.513" fill="#FAB131" cx="16.218" cy="16.248" rx="16.218" ry="16.248"></ellipse>
                        <path d="M10.136,12.592 L22.3,12.592" id="Shape" stroke-width="1.622"></path>
                        <g transform="translate(10.000000, 16.000000)" id="Shape" stroke-width="1.622">
                            <path d="M0.136,0.654 L12.3,0.654 M0.136,4.716 L12.3,4.716"></path>
                        </g>
                    </g>
                    <g transform="translate(10.000000, 93.000000)" id="$40,901.90" font-size="24.326" font-family="Futura Std" fill="#000000" sketch:type="MSTextLayer" font-weight="313">
                        <text>
                            <tspan x="0.434" y="20.423">$40,901.90</tspan>
                        </text>
                    </g>
                    <g transform="translate(235.000000, 93.000000)" id="9.5%" font-size="24.326" font-family="Futura Std" fill="#7CB7B6" sketch:type="MSTextLayer" font-weight="313">
                        <text>
                            <tspan x="0.859" y="20.423" fill="#75B5B5">9.5%</tspan>
                        </text>
                    </g>
                    <path d="M225.317,98.704 L231.399,108.858 L219.235,108.858" id="Shape" fill="#7CB7B6" sketch:type="MSShapeGroup"></path>
                    <rect id="Rectangle-path" fill="#E0EEED" sketch:type="MSShapeGroup" x="17" y="309" width="46.984" height="24.371" rx="3.244"></rect>
                    <g transform="translate(24.000000, 316.000000)" id="TOTAL" font-size="11.352" font-family="Futura Std" fill="#000000" sketch:type="MSTextLayer" font-weight="313">
                        <text>
                            <tspan x="0" y="9">TOTAL</tspan>
                        </text>
                    </g>
                    <g transform="translate(98.000000, 315.000000)" id="2WKS" font-size="11.352" font-family="Futura Std" fill="#000000" sketch:type="MSTextLayer" font-weight="313">
                        <text>
                            <tspan x="0.415" y="9.202">2WKS</tspan>
                        </text>
                    </g>
                    <g transform="translate(177.000000, 315.000000)" id="1MO" font-size="11.352" font-family="Futura Std" fill="#000000" sketch:type="MSTextLayer" font-weight="313">
                        <text>
                            <tspan x="0.07" y="9.202">1MO</tspan>
                        </text>
                    </g>
                    <g transform="translate(250.000000, 315.000000)" id="3MOS" font-size="11.352" font-family="Futura Std" fill="#000000" sketch:type="MSTextLayer" font-weight="313">
                        <text>
                            <tspan x="0.86" y="9.608">3MOS</tspan>
                        </text>
                    </g>
                    <path d="M0.5,349.525 L304.964,349.525" id="Shape" stroke="#000000" stroke-width="0.513" opacity="0.15" sketch:type="MSShapeGroup"></path>
                    <g transform="translate(194.000000, 412.000000)" id="$8,459" font-size="12.974" font-family="Futura Std" fill="#222222" sketch:type="MSTextLayer" font-weight="313">
                        <text>
                            <tspan x="0.098" y="11.281" fill="#000000">$8,459</tspan>
                        </text>
                    </g>
                    <g transform="translate(251.000000, 412.000000)" id="+8.9%" font-size="12.974" font-family="Futura Std" fill="#7CB7B6" sketch:type="MSTextLayer" font-weight="313">
                        <text>
                            <tspan x="0.688" y="11.281" fill="#000000">+8.9%</tspan>
                        </text>
                    </g>
                    <g transform="translate(251.000000, 461.000000)" id="+6.1%" font-size="12.974" font-family="Futura Std" fill="#7CB7B6" sketch:type="MSTextLayer" font-weight="313">
                        <text>
                            <tspan x="0.688" y="11.024" fill="#000000">+6.1%</tspan>
                        </text>
                    </g>
                    <g transform="translate(11.000000, 461.000000)" id="Tactical-Stocks" font-size="12.974" font-family="Futura Std" fill="#222222" sketch:type="MSTextLayer" font-weight="313">
                        <text>
                            <tspan x="0.65" y="11.024" fill="#000000">Tactical Stocks</tspan>
                        </text>
                    </g>
                    <path d="M12.46,446.807 L292.62,446.807 L292.62,454.931 L12.46,454.931 L12.46,446.807 Z" id="Shape" opacity="0.05" fill="#000000" sketch:type="MSShapeGroup"></path>
                    <path d="M12.8666477,446.807 L68.01,446.807 L68.01,454.931 L12.866,454.931 L12.8666477,446.807 Z" id="Shape" fill="#F04F21" sketch:type="MSShapeGroup"></path>
                    <g transform="translate(194.000000, 461.000000)" id="$7,091" font-size="12.974" font-family="Futura Std" fill="#222222" sketch:type="MSTextLayer" font-weight="313">
                        <text>
                            <tspan x="0.098" y="11.024" fill="#000000">$7,091</tspan>
                        </text>
                    </g>
                    <path d="M12.46,544.292 L292.62,544.292 L292.62,552.416 L12.46,552.416 L12.46,544.292 Z" id="Shape" opacity="0.05" fill="#000000" sketch:type="MSShapeGroup"></path>
                </g>
            </g>
        </g>
    </g>
</svg>