<svg width="72" height="83" viewBox="0 0 72 83" xmlns="http://www.w3.org/2000/svg"><title>Imported Layers</title><g fill="none" fill-rule="evenodd"><path d="M25.092 65.484v-8.327s.137-2.458-2.32-5.324c-2.458-2.867-7.92-9.403-7.92-16.17v-.137c0-11.912 9.66-21.57 21.573-21.57 11.915 0 21.573 9.658 21.573 21.57v.138c0 6.766-5.46 13.302-7.92 16.17-2.457 2.865-2.32 5.323-2.32 5.323v8.327" fill="#F0AC2B"/><path d="M36.425 21.773v43.71" stroke="#FFF" stroke-width="2" stroke-linecap="round"/><path d="M47.374 71H25.577c-1.067 0-1.94-.874-1.94-1.94v-.542c0-1.067.873-1.94 1.94-1.94h21.797c1.068 0 1.942.873 1.942 1.94v.54c0 1.068-.874 1.942-1.942 1.942M47.374 76.46H25.577c-1.067 0-1.94-.873-1.94-1.94v-.54c0-1.07.873-1.942 1.94-1.942h21.797c1.068 0 1.942.873 1.942 1.94v.54c0 1.07-.874 1.943-1.942 1.943M36.425 83.012c4.04 0 7.56-2.2 9.45-5.46h-18.9c1.89 3.26 5.41 5.46 9.45 5.46" fill="#918A80"/><path d="M36.92 25.43c2.89 0 5.233 2.343 5.233 5.233M35.97 25.43c-2.89 0-5.234 2.343-5.234 5.233m5.234 5.464c-2.89 0-5.234-2.343-5.234-5.233m6.01 5.464c2.892 0 5.235 2.343 5.235 5.233m-5.233 5.465c2.89 0 5.234-2.343 5.234-5.233m-6.01 5.233c-2.89 0-5.234-2.343-5.234-5.233" stroke="#FFF" stroke-width="2" stroke-linecap="round"/><path d="M9.647 36.127H1.364m69.362 0h-8.284M36.425 1.453v8.282M10.74 10.91l5.858 5.855m44.75-5.856l-5.856 5.855" stroke="#F0AC2B" stroke-width="2" stroke-linecap="round"/></g></svg>