<svg width="242" height="230" viewBox="0 0 242 230" xmlns="http://www.w3.org/2000/svg"><title>how-it-works-pool</title><g fill="none" fill-rule="evenodd"><path d="M208.377 33.89c44.675 44.676 44.68 117.104.01 161.773-44.67 44.67-117.096 44.665-161.77-.01C1.94 150.978 1.936 78.55 46.604 33.88c44.67-44.668 117.097-44.663 161.772.01" fill="#FFBD22"/><path d="M164.913 77.822c20.925 20.925 20.927 54.848.005 75.77-20.922 20.922-54.846 20.92-75.77-.005-20.925-20.924-20.927-54.848-.005-75.77 20.922-20.922 54.845-20.92 75.77.005" fill="#FFF"/><path d="M198.85 125.306c-4.38-3.228-5.903-9.814-3.382-14.636l11.757-23.77c2.52-4.823 5.473-11.732 2.883-16.518l-11.013-24.82c-4.632-4.108-9.185-8.556-12.935-9.614-3.75-1.057-8.31-2.788-10.138-3.846-1.826-1.057 1.108-2.385 6.52-2.95l3.74-.39c5.412-.565 12.515 2.53 15.786 6.88L225.576 67.5c3.27 4.35 3.905 11.862 1.574 16.78l-14.315 39.27c-2.33 4.916-7.822 6.297-12.203 3.07l-1.782-1.314" fill="#DA9354"/><path d="M193.326 34.725c4.344 4.344 4.345 11.387 0 15.73-4.342 4.344-11.385 4.344-15.73 0-4.343-4.344-4.344-11.387 0-15.73 4.343-4.344 11.386-4.344 15.73 0" fill="#FFF"/><path d="M192.078 35.973c3.655 3.655 3.655 9.58 0 13.235-3.653 3.654-9.58 3.654-13.234 0-3.654-3.656-3.655-9.582 0-13.236 3.654-3.654 9.58-3.654 13.234 0" fill="#83BDBC"/><path d="M203.408 45.102c-.707-1.244-1.526-2.426-2.443-3.526-.575-.69-1.322-1.404-2.218-1.336-.502.04-1.808.22-1.867.72-.29 2.505-1.41 4.345-2.585 6.478-1.247 2.262-3.62 3.803-4.608 6.19-.67 1.255.07 1.928.494 1.955 1.01.063 2.306-1.48 2.988-2.075 1.17-1.017 2.078-2.49 3.396-3.4 1.997-1.378 3.608-.613 4.95.96.768.903 2.3-2.485 2.532-3.48.2-.853-.204-1.723-.638-2.486" fill="#DA9354"/><path d="M181.95 41.717l1.233-1.982-7.284-4.53-1.234 1.98 7.284 4.532" fill="#EF5937"/><path d="M83.393 128.577c.327.284 6.473 5.205 6.855 5.41 5.427 2.9 11.488 5.01 16.644 8.26.714.452 8.586 6.334 8.488 6.432l35.48-29.537 8.563-12.06c-.112.16-6.748-1.208-7.42-1.402-8.4-2.43-12.877-11.93-16.03-19.302-.416-.97-.815-1.98-1.55-2.733-6.217-6.372-25.34 16.122-29.01 20.464-2.987 5.183-5.97 10.37-8.973 15.548" fill="#DD9C62"/><path d="M89.453 133.588c-2.856-1.806-6.512-4.904-8.332-7.167 9.82-7.028 14.16-22.336 9.844-33.615.758-1.107 2.01-2.65 3.54-3.626 3.032 1.735 8.886 1.42 12.354.994 8.495-1.043 14.652-8.326 19.912-15.077 4.453 3.553 6.768 4.958 8.764 10.195-16.08 13.283-12.58 9.794-27.847 25.05 0 0-12.292 13.46-18.234 23.246" fill="#EF5937"/><path d="M203.47 115.243c21.366 21.367 21.368 56.007.004 77.372-21.364 21.363-56.005 21.36-77.372-.006-21.366-21.367-21.368-56.008-.005-77.372 21.365-21.364 56.006-21.362 77.372.005" fill="#FBE7C5"/><path d="M134.455 177.373c3.065.864 6.31.002 9.486-.226 5.815-.417 11.76 1.408 16.338 5.016l-5.72 8.712c-1.58-2.905-1.2-6.457-2.024-9.66-1.585-6.155-7.288-10.204-12.59-13.71l-5.49 9.868" fill="#EF5937"/><path d="M184.103 134.608c10.67 10.67 10.672 27.97.003 38.64-10.67 10.667-27.968 10.666-38.638-.005-10.67-10.67-10.67-27.968-.003-38.637 10.67-10.668 27.968-10.668 38.638.002" fill="#E6CDA1"/><path d="M164.913 77.822c20.925 20.925 20.927 54.848.005 75.77-20.922 20.922-54.846 20.92-75.77-.005-20.925-20.924-20.927-54.848-.005-75.77 20.922-20.922 54.845-20.92 75.77.005" fill="#FFF"/><path d="M198.85 125.306c-4.38-3.228-5.903-9.814-3.382-14.636l11.757-23.77c2.52-4.823 5.473-11.732 2.883-16.518l-11.013-24.82c-4.632-4.108-9.185-8.556-12.935-9.614-3.75-1.057-8.31-2.788-10.138-3.846-1.826-1.057 1.108-2.385 6.52-2.95l3.74-.39c5.412-.565 12.515 2.53 15.786 6.88L225.576 67.5c3.27 4.35 3.905 11.862 1.574 16.78l-14.315 39.27c-2.33 4.916-7.822 6.297-12.203 3.07l-1.782-1.314" fill="#DA9354"/><path d="M193.326 34.725c4.344 4.344 4.345 11.387 0 15.73-4.342 4.344-11.385 4.344-15.73 0-4.343-4.344-4.344-11.387 0-15.73 4.343-4.344 11.386-4.344 15.73 0" fill="#FFF"/><path d="M192.078 35.973c3.655 3.655 3.655 9.58 0 13.235-3.653 3.654-9.58 3.654-13.234 0-3.654-3.656-3.655-9.582 0-13.236 3.654-3.654 9.58-3.654 13.234 0" fill="#83BDBC"/><path d="M203.408 45.102c-.707-1.244-1.526-2.426-2.443-3.526-.575-.69-1.322-1.404-2.218-1.336-.502.04-1.808.22-1.867.72-.29 2.505-1.41 4.345-2.585 6.478-1.247 2.262-3.62 3.803-4.608 6.19-.67 1.255.07 1.928.494 1.955 1.01.063 2.306-1.48 2.988-2.075 1.17-1.017 2.078-2.49 3.396-3.4 1.997-1.378 3.608-.613 4.95.96.768.903 2.3-2.485 2.532-3.48.2-.853-.204-1.723-.638-2.486" fill="#DA9354"/><path d="M181.95 41.717l1.233-1.982-7.284-4.53-1.234 1.98 7.284 4.532" fill="#EF5937"/><path d="M83.393 128.577c.327.284 6.473 5.205 6.855 5.41 5.427 2.9 14.033 8.644 19.19 11.896.714.45 11.81 8.466 11.71 8.565l26.39-26.04s9.922-10.605 9.963-10.663c-.11.158-5.116-11.478-5.498-12.064-5.34-8.21-7.633-9.33-12.33-15.202-2.798-3.496-4.514-6.08-5.25-6.833-6.216-6.372-25.338 16.122-29.008 20.464-2.988 5.183-5.97 10.37-8.974 15.548" fill="#DD9C62"/><path d="M132.86 181.89c-9.263-.525-30.936 13.456-40.374 18.7-5.418 2.27-4.894 1.746-15.73 3.494-10.837 1.747-31.024-3.236-31.024-3.236-1.527-.115-2.957-.198-4.72-.35-.87-.075-1.718-.245-2.55-.456-.253-.152-.45-.29-.517-.398-1.914-3.062-1.976-5.678-4.308-7.37-.307-.223-1.31-.44-1.42-.077-.398.365-.197.993-.015 1.513.273.78 1.206 2.336.623 2.92-.215.214-.794.27-1.394.152-.63-.422-1.232-.847-1.778-1.266-4.108-3.146-7.208-9.906-8.96-8.61-2.023 1.5 6.032 11.917 9.63 15.135 1.66 1.487 5.326 2.868 10.41 4.805 0 0 .528.2 1.488.552 5.956 2.18 28.553 10.158 44.732 11.777 9.323.933 45.18-16.622 45.18-16.622 4.887-2.392 8.562-8.79 8.165-14.216l-5.514.72c-.396-5.427 7.34-6.642-1.923-7.166" fill="#DA9354"/><path d="M203.47 115.243c21.366 21.367 21.368 56.007.004 77.372-21.364 21.363-56.005 21.36-77.372-.006-21.366-21.367-21.368-56.008-.005-77.372 21.365-21.364 56.006-21.362 77.372.005" fill="#FBE7C5"/><path d="M134.455 177.373c3.065.864 6.31.002 9.486-.226 5.815-.417 11.76 1.408 16.338 5.016l-5.72 8.712c-1.58-2.905-1.2-6.457-2.024-9.66-1.585-6.155-7.288-10.204-12.59-13.71l-5.49 9.868" fill="#EF5937"/><path d="M184.103 134.608c10.67 10.67 10.672 27.97.003 38.64-10.67 10.667-27.968 10.666-38.638-.005-10.67-10.67-10.67-27.968-.003-38.637 10.67-10.668 27.968-10.668 38.638.002" fill="#E6CDA1"/><path d="M96.608 96.902c4.548 2.99 6.722 9.61 4.83 14.71l-5.81 15.67c-1.89 5.103-6.74 6.293-10.78 2.646L4.136 57.025c-4.038-3.647-5.097-9.452-2.352-12.9 2.745-3.445 8.712-3.82 13.258-.83L96.61 96.9M130.637 78.56c4.104 3.575 3.596 8.71-1.127 11.41l-14.4 8.236c-4.722 2.7-11.447 1.498-14.942-2.672L37.218 20.42c-3.493-4.172-3.804-10.133-.688-13.25 3.115-3.114 9.02-2.74 13.124.836l80.983 70.554" fill="#DD9C62"/><path d="M81.616 126.917c9.82-7.03 14.16-22.337 9.844-33.616.757-1.106 2.01-2.65 3.54-3.625 3.032 1.736 8.885 1.42 12.353.995 8.496-1.044 14.652-8.326 19.912-15.078 3.986 4.253 5.385 5.884 8.765 10.196-16.08 13.282-12.58 9.793-27.847 25.05 0 0-12.293 13.458-18.235 23.245-2.855-1.806-6.512-4.904-8.332-7.166z" fill="#EF5937"/></g></svg>