<svg width="920" height="210" viewBox="0 0 920 210" xmlns="http://www.w3.org/2000/svg"><title>Path 12</title><path d="M46.35 210H0V0h920v40.065l-77.236-18.982-39.742-3.26-43.008-7.607S731.454 32.646 721.8 36.8c-.872.375-18.404 0-18.404 0l-23.41 22.314-92.55 24.992h-65.872l-49.54 14.67-47.91 4.89H375.12l-66.417 31.51s-55.53 11.41-58.795 11.41c-3.267 0-59.885 5.434-59.885 5.434l-25.587 15.212-32.664 9.236-11.434-3.26-26.676 20.646-5.988-5.433-41.514 20.028.19 1.552z" fill="#FFF" fill-rule="evenodd"/></svg>