<svg width="272" height="201" viewBox="0 0 272 201" xmlns="http://www.w3.org/2000/svg"><title>snowboarder</title><g fill="none" fill-rule="evenodd"><path d="M210.132 69.375c-.583 4.745-4.902 8.12-9.647 7.536-4.744-.58-8.12-4.9-7.536-9.645.58-4.744 4.9-8.12 9.645-7.536 4.745.58 8.12 4.9 7.537 9.645" fill="#E28759"/><path d="M168.523 31.317c11.79 5.6 24.113 11.635 31.613 22.318 2.322 3.305 4.156 7.478 2.88 11.31-.16.48-.392.976-.827 1.233-.383.225-1.352-.218-1.294.22 1.878 14.065-24.996-2.322-36.86-6.306" fill="#ED5A3F"/><path d="M258.615 98.272l-155.408 98c-12.97 8.18-30.272 4.26-38.45-8.71-8.178-12.97-4.26-30.27 8.71-38.45l155.41-98c12.968-8.178 30.27-4.258 38.448 8.71 8.178 12.97 4.26 30.272-8.71 38.45" fill="#FFBC39"/><path d="M127.906 124.435c-5.598-1.287-11.774 3.4-12.042 9.138-.298 6.39 3.73 12.6 7.506 17.415 4.657 5.934 8.326 9.18 15.93 10.116 7.31.9 11.166-4.577 10.89-11.382-.422-10.322-12.27-22.983-22.284-25.287M190.62 83.083c-5.597-1.288-11.773 3.398-12.04 9.137-.3 6.39 3.73 12.602 7.505 17.415 4.657 5.935 8.326 9.18 15.93 10.117 7.31.9 11.167-4.578 10.89-11.383-.422-10.323-12.27-22.983-22.284-25.287" fill="#231F1F"/><path d="M98.438 95.994c2.87 10.803 5.793 21.738 11.256 31.49 4.988 8.91 26.07 32.882 35.688 12.017 5.812-12.608-1.502-28.065-6.027-40.8-2.43-6.838-4.235-11.01-7.542-19.592M149.268 75.895c5.163 5.545 8.06 10.705 15.493 16.635 4.475 3.57 8 8.14 13.153 10.823 6.792 3.533 22.79 7.756 24.298-3.758 1.23-9.377-3.84-18.6-9.025-26.014-5.488-7.845-11.41-15.504-19.06-21.374" fill="#B59A41"/><path d="M65.87 24.683c22.612 1.207 40.728 2.513 63.356 2.695 12.422.1 24.648 2.31 35.968 6.375 5.242 1.882 10.486 4.314 14.05 8.575 4.34 5.194 4.28 11.817 1.92 18.057-1.464 3.874-6.754 8.07-9.58 11.074-8.232 8.76-17.675 16.796-28.168 23.31-7.788 4.835-20.527 12.297-30.75 12.03-6.328-.166-10.967-4.214-14.243-8.902-4.53-6.48-6.793-13.537-10.396-20.624-2.426-4.77-5.212-11.197-9.193-14.944-2.387-2.246-8.577-7.594-11.6-8.75-7.33-2.803-34.15-15.155-41.48-17.957l5.836-14.74c8.54.61 30.346 3.59 34.28 3.8z" fill="#ED5A3F"/><path d="M148.46 57.968c15.644-4.486 23.597-20.802 19.056-36.637C162.976 5.497 148.613-.54 132.97 3.944c-15.645 4.486-24 19.266-19.46 35.1 4.54 15.835 19.306 23.41 34.95 18.925z" fill="#EA986F"/><path d="M146.764 52.17c15.645-4.485 25.272-14.965 20.728-30.81-4.543-15.845-23.115-24.22-38.76-19.735-15.645 4.486-19.792 21.605-15.25 37.45 4.545 15.845 17.637 17.582 33.282 13.096z" fill="#231F20"/><path d="M25.755 35.623c-1.912-.373-3.894-.378-5.807-.017-2.215.42-4.42 1.326-6.646.978-1.897-.298-3.345-1.656-1.978-2.963 1.042-.995 2.415-1.267 3.015-2.08.52-.71.428-2.146-.365-3.13-.947-1.175-2.872-1.747-4.193-2.392-2.56-1.248-6.407-1.9-7.992-4.513-1.004-1.655-1.054-3.807-.377-5.593.83-2.185 2.75-2.726 4.918-2.555 8.625.68 18.24 3.862 25.26 7.525" fill="#E28759"/></g></svg>