<svg width="441" height="342" viewBox="0 0 441 342" xmlns="http://www.w3.org/2000/svg"><title>surfer</title><g fill="none" fill-rule="evenodd"><path d="M424.016 7.572c8.74 3.532 19.19 15.96 15.673 24.66-3.516 8.702-19.664 10.384-28.405 6.853-8.74-3.532-12.977-13.45-9.46-22.15 3.515-8.703 13.45-12.894 22.19-9.363" fill="#FFBD22"/><path d="M412.47 32.32c3.503.712 3.876 5.26 7.623 10.368 2.13 2.905-6.723 3.232-10.225 2.518-3.5-.713-5.757-4.175-5.04-7.734.72-3.56 4.142-5.866 7.643-5.153M420.31 12.916c3.015 1.92 6.443-1.093 12.686-2.165 3.55-.607-2.59-6.993-5.605-8.913-3.013-1.92-7.042-.995-8.997 2.064-1.955 3.06-1.096 7.096 1.917 9.016" fill="#FFBD22"/><path d="M416.503 12.967c4.575 1.85 6.79 7.04 4.95 11.593-1.84 4.555-7.04 6.748-11.614 4.9-4.575-1.848-6.792-7.04-4.952-11.593 1.84-4.554 7.04-6.748 11.615-4.9" fill="#FFCF5E"/><path d="M409.87 13.74c-2.243.382-4.24 1.878-5.152 4.135-.905 2.24-.488 4.696.835 6.524 0 0 .483-3.14 1.535-5.745 1.052-2.604 2.783-4.915 2.783-4.915" fill="#EF5937"/><g><path d="M105.53 140.59c61.11-61.096 150.224-93.96 169.884-74.307 19.66 19.653-23.866 119.42-74.312 169.853C150.655 286.57 39.352 343.74 33.5 341.21c-5.85-2.53-8.414-4.343-17.303-13.23C5.997 317.783 3.38 313.735.425 308.145c-2.955-5.59 43.99-106.46 105.104-167.555" fill="#83BDBC"/><path d="M16.197 327.98C5.997 317.783 3.38 313.735.425 308.145c-2.955-5.59 43.99-106.46 105.104-167.555 61.11-61.096 150.224-93.96 169.884-74.307" fill="#75B5B5"/><path d="M191.433 126.242l9.74-10.95 15.826 14.6-12.175 9.124-13.392-12.774M122.82 208.918l-18.024-17.45s-14.113 19.43-26.793 34.776c-7.413 8.97-15.107 15.774-17.165 18.524-5.58 7.454-7.77 16.07-14.653 24.6-6.883 8.532-18.17 20.5-18.17 20.5l8.792 7.03s13.593-17.74 19.928-22.258c6.335-4.52 17.123-14.75 21.1-21.086 1.328-2.118 5.7-10.067 12.495-16.594 9.348-8.98 21.62-18.587 28.324-23.676-4.847 6.87-13.98 19.616-22.477 30.405-7.2 9.14-14.734 16.123-16.727 18.92-5.403 7.583-9.15 15.075-15.83 23.765-6.68 8.69-16.512 20.92-16.512 20.92l8.954 6.82s12-18.05 18.228-22.717c6.228-4.665 17.36-13.388 21.186-19.817 1.28-2.147 6.636-10.782 13.275-17.467 13.234-13.323 32.573-28.105 32.573-28.105l-18.502-17.09" fill="#FEC0B3"/><path d="M93.432 205.737s6.37 5.02 11.116 9.21c2.816 2.49 5.058 5.08 5.058 5.08s2.166-1.124 4.41-2.917c2.408-1.926 4.907-4.533 4.907-4.533s-3.764 4.467-5.97 7.59c-1.182 1.674-1.483 2.962-1.483 2.962s4.987 1.457 7.122 6.448c.823 1.92 9.027 10.93 9.027 10.93s3.86-2.292 8.71-6.7c3.28-2.983 7.016-7.182 10.314-10.414 4.927-4.828 8.876-8.247 8.876-8.247l-37.89-37.9s-5.208 4.808-10.397 10.917c-6.712 7.903-13.8 17.573-13.8 17.573" fill="#3A3B38"/><path d="M178.445 30.724c-2.09-.597-3.537-1.792-3.537-1.792s-17.946 30.936-18.26 35.89c-.316 4.954 5.477 45.622 5.477 45.622l13.392-6.69s-6.663-36.53-6.087-40.15c.575-3.616 14-32.238 14-32.238s-2.816-.023-4.985-.642zm52.464 168.53c-.708-3.413-.635-8.466-1.637-14.08-1.093-6.124-2.016-11.467-2.016-11.467l-12.174 8.516s2.112 14.743 1.826 17.64c-.606 6.117 3.486 24.084 1.825 27.982-1.66 3.898 10.348-1.216 10.348-1.216s3.305-20.236 1.826-27.375z" fill="#FEC0B3"/><path d="M114.98 176.138s13.15 18.15 21.306 24.94c8.155 6.79 20.087 13.383 20.087 13.383l52.35-41.97 4.26 12.165 15.217-9.733-4.87-18.857s-3.842-11.02-10.956-17.64c-2.41-2.245-7.855-4.34-12.524-7.928-2.84-2.18-5.443-7.314-8.3-9.52-6.312-4.872-11.095-7.734-12.655-9.926-4.338-6.095-1.59-8.693-2.434-9.124-.845-.43-15.333 7.33-15.826 8.516-.493 1.19-.093 12.593-1.217 15.208-1.125 2.615-44.436 50.488-44.436 50.488" fill="#FFF"/><path d="M209.598 31.78s-2.777-10.83-10.26-17.336c-6.65-5.78-16.764-7.634-23.674-7.09-8.206.644-20.917 2.397-26.806 13.11m49.61 11.03s-3.48-7.162-7.35-10.24c-5.256-4.182-11.153-4.61-16.756-4.372-4.88.208-9.99 1.25-13.428 7.5m29.21 8.462s-1.456-4.07-3.75-5.676c-3.965-2.778-6.303-3.554-9.956-3.02-4.188.612-5.875 1.056-7.87 4.676m40.314 209.078s2.236 6.3 10.607 5.248c8.37-1.05 10.397-2.97 17.58-4.64 6.73-1.564 8.024-6.074 7.876-13.203m-29.53 7.267s1.282 3.65 6.086 3.04c4.805-.608 5.52-2.73 9.74-3.04 4.22-.31 4.954-3.17 4.87-7.3" stroke="#E9F3F2"/><path d="M199.847 104.938c-3.274 12.546 4.37 24.42 15.62 25.335 12.66 1.03 23.143-7.586 25.72-20.427 1.356-6.768-1.505-12.707-5.16-16.45-9.897-10.145-31.768-5.37-36.18 11.542z" fill="#FFBD22"/><path d="M22.916 310.794c-3.025-1.7-4.108-5.564-2.405-8.586l7.163-12.703c1.703-3.02 5.572-4.102 8.598-2.4 3.027 1.7 4.11 5.563 2.406 8.584l-7.16 12.703c-1.704 3.02-5.574 4.102-8.6 2.4M46.577 331.184c-3.353-.9-5.36-4.376-4.457-7.725l3.79-14.078c.903-3.348 4.384-5.352 7.737-4.45 3.353.9 5.36 4.375 4.457 7.723l-3.79 14.078c-.902 3.348-4.384 5.35-7.737 4.45" fill="#FFD1CA"/><path d="M197.76 110.46c0 2.67-2.166 4.833-4.838 4.833s-4.84-2.164-4.84-4.832c0-2.668 2.168-4.83 4.84-4.83 2.672 0 4.84 2.162 4.84 4.83" fill="#FEBC23"/><path d="M198.43 113.49h-.426c-.307 0-.558-.25-.558-.558v-4.95c0-.307.25-.557.558-.557h.425c.306 0 .557.25.557.557v4.95c0 .307-.25.558-.558.558" fill="#191919"/></g></g></svg>