<svg width="3338" height="2097" viewBox="0 0 3338 2097" xmlns="http://www.w3.org/2000/svg"><title>Group</title><g fill="none" fill-rule="evenodd"><path d="M3338 .047S212.273 740.094 107.937 767.36c-104.335 27.265-178.218 63.765.172 130.187 606.15 210.026 1052.303 427.053 1658.455 637.08C2185.872 1679.91 3338 2096.483 3338 2096.483V.047z" fill="#83BDBC"/><path d="M958 565l53-34 11 10 49-38 21 6 60-17 47-28s104-10 110-10 108-21 108-21l122-58h90l88-9 91-27h121l170-46 43-41.072s32.205.69 33.807 0C2193.537 244.285 2246 203 2246 203l79 14 73 6 35 116L990 584" fill="#83BDBC"/><g fill="#5D9594"><path d="M2143.442 1526.16l15.92 107.868h-31.84"/><path d="M2140.03 1630.386h6.824v25.033h-6.823zM2189.48 1556.32l15.922 107.87h-31.842"/><path d="M2186.07 1660.547h6.822v25.033h-6.823z"/><g><path d="M2235.52 1580.997l15.92 107.87h-31.842"/><path d="M2232.108 1685.225h6.823v25.033h-6.822z"/></g><g><path d="M2281.558 1600.19l15.92 107.87h-31.84"/><path d="M2278.146 1704.418h6.823v25.033h-6.824z"/></g></g><path d="M1584.505 1481.782c14.54-16.393 183.925 77.756 284.488-55.417l56.95.697s79.335 202.522 472.103 334.327c392.767 131.804-34 50-34 50l-828-309" fill="#FFF"/><path d="M2026.218 1154.746c-.514 4.186-4.324 7.163-8.51 6.65-4.185-.515-7.16-4.325-6.647-8.51.515-4.186 4.325-7.163 8.51-6.65 4.186.515 7.162 4.325 6.648 8.51" fill="#E28759"/><path d="M1989.514 1121.174c10.4 4.938 21.27 10.264 27.887 19.687 2.05 2.917 3.667 6.598 2.542 9.98-.14.423-.346.86-.73 1.087-.337.198-1.192-.193-1.14.194 1.656 12.407-22.05-2.048-32.516-5.563" fill="#ED5A3F"/><path d="M2068.988 1180.238l-137.093 86.45c-11.44 7.216-26.703 3.758-33.918-7.683-7.214-11.44-3.756-26.703 7.684-33.918l137.094-86.45c11.44-7.215 26.703-3.757 33.917 7.683 7.215 11.44 3.758 26.703-7.682 33.918" fill="#FFBC39"/><path d="M1953.683 1203.318c-4.937-1.136-10.386 2.998-10.622 8.06-.262 5.637 3.29 11.117 6.622 15.363 4.108 5.236 7.345 8.1 14.052 8.925 6.45.793 9.85-4.038 9.607-10.04-.37-9.106-10.822-20.275-19.657-22.307M2009.007 1166.84c-4.938-1.137-10.386 2.996-10.623 8.06-.262 5.636 3.29 11.116 6.622 15.362 4.108 5.235 7.345 8.1 14.052 8.924 6.45.793 9.85-4.038 9.606-10.04-.37-9.106-10.822-20.275-19.657-22.307" fill="#231F1F"/><path d="M1927.69 1178.228c2.53 9.53 5.11 19.176 9.928 27.78 4.4 7.86 22.998 29.006 31.482 10.6 5.127-11.123-1.325-24.76-5.317-35.992-2.144-6.033-3.735-9.714-6.653-17.284M1972.528 1160.498c4.555 4.892 7.11 9.444 13.667 14.675 3.947 3.15 7.056 7.18 11.602 9.547 5.992 3.117 20.104 6.842 21.434-3.315 1.085-8.272-3.388-16.41-7.96-22.948-4.842-6.922-10.067-13.678-16.815-18.856" fill="#B59A41"/><path d="M1898.96 1115.32c19.947 1.067 35.928 2.218 55.89 2.38 10.957.086 21.74 2.037 31.727 5.622 4.624 1.66 9.25 3.806 12.393 7.565 3.83 4.582 3.776 10.424 1.695 15.93-1.292 3.417-5.958 7.117-8.45 9.768-7.263 7.73-15.593 14.817-24.85 20.564-6.87 4.264-18.107 10.846-27.124 10.61-5.582-.146-9.674-3.717-12.564-7.852-3.996-5.716-5.992-11.942-9.17-18.194-2.14-4.207-4.6-9.877-8.11-13.182-2.107-1.982-7.566-6.7-10.234-7.72-6.466-2.47-30.124-13.368-36.59-15.84l5.148-13.003c7.533.538 26.77 3.166 30.24 3.35z" fill="#ED5A3F"/><path d="M1971.816 1144.684c13.8-3.957 20.815-18.35 16.81-32.32-4.006-13.968-16.676-19.295-30.476-15.338-13.8 3.957-21.17 16.995-17.166 30.963 4.006 13.968 17.03 20.65 30.832 16.694z" fill="#EA986F"/><path d="M1970.32 1139.57c13.8-3.957 22.293-13.202 18.285-27.18-4.01-13.977-20.39-21.367-34.192-17.41-13.8 3.958-17.46 19.06-13.452 33.037 4.01 13.978 15.558 15.51 29.36 11.553z" fill="#231F20"/><path d="M1863.572 1124.972c-1.686-.328-3.435-.333-5.122-.015-1.954.37-3.9 1.17-5.863.863-1.673-.262-2.95-1.46-1.744-2.614.92-.878 2.13-1.118 2.66-1.837.46-.625.377-1.892-.323-2.76-.834-1.037-2.533-1.542-3.698-2.11-2.26-1.102-5.652-1.676-7.05-3.982-.886-1.46-.93-3.358-.333-4.933.73-1.928 2.425-2.405 4.338-2.254 7.608.6 16.09 3.407 22.282 6.64" fill="#E28759"/><g><path stroke="#979797" d="M1380 1234h52.41"/><g transform="translate(1269 824)"><circle fill="#FFBC39" cx="41" cy="40" r="40"/><text font-family="CaslonGraphiqueEF" font-size="45" fill="#FFF"><tspan x="29" y="54.403">2</tspan></text></g><g transform="translate(1269 1987)"><circle fill="#FAB131" cx="40" cy="40" r="40"/><text font-family="CaslonGraphiqueEF" font-size="45" fill="#FFF"><tspan x="24" y="54.403">4</tspan></text></g><path d="M1708 526.512s-168-28-160 157-198 176-198 176M1271.683 870s-105 19-118 111 51 160 133 189 390 140 604 204 181 225 181 225" stroke="#FFF" stroke-width="3"/><path d="M1274.637 1210.357c.137-.44.195-.954.555-1.16.18-.104.403-.102.61-.084 2.624.224 3.92 2.097 6.55 2.21 1.702.07 3.335-.758 4.632-1.864 1.042-.89.77-.524 1.004-1.874.013-.075-6.71-2.373-7.347-2.58-1.504-.49-3.052-.885-4.633-1.017-1.188-.1-2.473.006-3.455.863-1.16 1.012-1.23 1.917-1.6 3.412l-1.086 4.37c-.15.602-.44 1.26.058 1.697.476.416 1.047.845 2.475.72 2.05-.18 1.77-3.185 2.237-4.695" fill="#387D5D"/><path d="M1283.946 1206.83c0 .852-.69 1.543-1.542 1.543-.852 0-1.543-.69-1.543-1.543 0-.852.692-1.543 1.544-1.543.852 0 1.542.69 1.542 1.543" fill="#E18659"/><path d="M1285.892 1193.09c1.1 1.902 4.334 2.044 5.412-.09.8-1.583.06-3.613-1.482-4.298-1.736-.77-3.432-.093-4.143 1.566-.375.874-.194 2.12.212 2.822" fill="#231F1F"/><path d="M1280.29 1204.812c.03.235.135.474.342.72 1.054 1.243 5.975 3.65 6.932 1.298 1.067-2.625 1.74-5.794 2.807-8.418.196-.48.395-.984.344-1.5-.06-.59-.55-1.55-1.505-2.08-.898-.5-2.787-.408-3.505.264-1.35 1.264-2.21 2.93-3.032 4.562-.41.816-.797 1.662-1.28 2.438-.428.684-1.22 1.834-1.103 2.716" fill="#5B587F"/><path d="M1281.487 1212.316c-.97 0-1.95-.118-2.79-.36l-3.202-.923c-.592-.17-.933-.788-.763-1.38.17-.59.79-.932 1.38-.762l3.202.923c1.42.41 3.584.353 4.63-.123 1.035-.47 2.456-2.066 3.04-3.415l2.848-6.578c.245-.565.9-.825 1.467-.58.564.244.823.9.58 1.466l-2.85 6.578c-.805 1.863-2.635 3.865-4.164 4.56-.862.393-2.11.596-3.38.596M1269.682 1213.606c-.568.642-1.45.538-2.22.604-.51.044-1.254.205-1.49.73-.42.937.772 1.39 1.432 1.607 1.242.41 4.205 1.193 4.47 1.034 1.45-.868 1.58-2.348 1.754-3.322" fill="#FFF"/><path d="M1285.567 1223.23l-34.124-11.22-1.284-1.974.8-.52 1.1 1.69 33.805 11.118-.298.907" fill="#535B66"/><path d="M1286.337 1220.793l-34.1-4.672-1.62-1.706.692-.658 1.39 1.463 33.767 4.626-.13.947" fill="#535B66"/><path d="M1278.272 1199.264v-30.07c0-.615.5-1.114 1.115-1.114.616 0 1.115.5 1.115 1.115v30.07c0 .615-.5 1.114-1.115 1.114-.616 0-1.115-.5-1.115-1.116z" fill="#FFF"/><g><path d="M1274.637 1210.357c.137-.44.195-.954.555-1.16.18-.104.403-.102.61-.084 2.624.224 3.92 2.097 6.55 2.21 1.702.07 3.335-.758 4.632-1.864 1.042-.89.77-.524 1.004-1.874.013-.075-6.71-2.373-7.347-2.58-1.504-.49-3.052-.885-4.633-1.017-1.188-.1-2.473.006-3.455.863-1.16 1.012-1.23 1.917-1.6 3.412l-1.086 4.37c-.15.602-.44 1.26.058 1.697.476.416 1.047.845 2.475.72 2.05-.18 1.77-3.185 2.237-4.695" fill="#387D5D"/><path d="M1283.946 1206.83c0 .852-.69 1.543-1.542 1.543-.852 0-1.543-.69-1.543-1.543 0-.852.692-1.543 1.544-1.543.852 0 1.542.69 1.542 1.543" fill="#E18659"/><path d="M1285.892 1193.09c1.1 1.902 4.334 2.044 5.412-.09.8-1.583.06-3.613-1.482-4.298-1.736-.77-3.432-.093-4.143 1.566-.375.874-.194 2.12.212 2.822" fill="#231F1F"/><path d="M1280.29 1204.812c.03.235.135.474.342.72 1.054 1.243 5.975 3.65 6.932 1.298 1.067-2.625 1.74-5.794 2.807-8.418.196-.48.395-.984.344-1.5-.06-.59-.55-1.55-1.505-2.08-.898-.5-2.787-.408-3.505.264-1.35 1.264-2.21 2.93-3.032 4.562-.41.816-.797 1.662-1.28 2.438-.428.684-1.22 1.834-1.103 2.716" fill="#5B587F"/><path d="M1281.487 1212.316c-.97 0-1.95-.118-2.79-.36l-3.202-.923c-.592-.17-.933-.788-.763-1.38.17-.59.79-.932 1.38-.762l3.202.923c1.42.41 3.584.353 4.63-.123 1.035-.47 2.456-2.066 3.04-3.415l2.848-6.578c.245-.565.9-.825 1.467-.58.564.244.823.9.58 1.466l-2.85 6.578c-.805 1.863-2.635 3.865-4.164 4.56-.862.393-2.11.596-3.38.596M1269.682 1213.606c-.568.642-1.45.538-2.22.604-.51.044-1.254.205-1.49.73-.42.937.772 1.39 1.432 1.607 1.242.41 4.205 1.193 4.47 1.034 1.45-.868 1.58-2.348 1.754-3.322" fill="#FFF"/><path d="M1285.567 1223.23l-34.124-11.22-1.284-1.974.8-.52 1.1 1.69 33.805 11.118-.298.907" fill="#535B66"/><path d="M1286.337 1220.793l-34.1-4.672-1.62-1.706.692-.658 1.39 1.463 33.767 4.626-.13.947" fill="#535B66"/><path d="M1278.272 1199.264v-30.07c0-.615.5-1.114 1.115-1.114.616 0 1.115.5 1.115 1.115v30.07c0 .615-.5 1.114-1.115 1.114-.616 0-1.115-.5-1.115-1.116z" fill="#FFF"/></g><g><path d="M1536.637 1304.357c.137-.44.195-.954.555-1.16.18-.104.403-.102.61-.084 2.624.224 3.92 2.097 6.55 2.21 1.702.07 3.335-.758 4.632-1.864 1.042-.89.77-.524 1.004-1.874.013-.075-6.71-2.373-7.347-2.58-1.504-.49-3.052-.885-4.633-1.017-1.188-.1-2.473.006-3.455.863-1.16 1.012-1.23 1.917-1.6 3.412l-1.086 4.37c-.15.602-.44 1.26.058 1.697.476.416 1.047.845 2.475.72 2.05-.18 1.77-3.185 2.237-4.695" fill="#387D5D"/><path d="M1545.946 1300.83c0 .852-.69 1.543-1.542 1.543-.852 0-1.543-.69-1.543-1.543 0-.852.692-1.543 1.544-1.543.852 0 1.542.69 1.542 1.543" fill="#E18659"/><path d="M1547.892 1287.09c1.1 1.902 4.334 2.044 5.412-.09.8-1.583.06-3.613-1.482-4.298-1.736-.77-3.432-.093-4.143 1.566-.375.874-.194 2.12.212 2.822" fill="#231F1F"/><path d="M1542.29 1298.812c.03.235.135.474.342.72 1.054 1.243 5.975 3.65 6.932 1.298 1.067-2.625 1.74-5.794 2.807-8.418.196-.48.395-.984.344-1.5-.06-.59-.55-1.55-1.505-2.08-.898-.5-2.787-.408-3.505.264-1.35 1.264-2.21 2.93-3.032 4.562-.41.816-.797 1.662-1.28 2.438-.428.684-1.22 1.834-1.103 2.716" fill="#FFBC39"/><path d="M1543.487 1306.316c-.97 0-1.95-.118-2.79-.36l-3.202-.923c-.592-.17-.933-.788-.763-1.38.17-.59.79-.932 1.38-.762l3.202.923c1.42.41 3.584.353 4.63-.123 1.035-.47 2.456-2.066 3.04-3.415l2.848-6.578c.245-.565.9-.825 1.467-.58.564.244.823.9.58 1.466l-2.85 6.578c-.805 1.863-2.635 3.865-4.164 4.56-.862.393-2.11.596-3.38.596M1531.682 1307.606c-.568.642-1.45.538-2.22.604-.51.044-1.254.205-1.49.73-.42.937.772 1.39 1.432 1.607 1.242.41 4.205 1.193 4.47 1.034 1.45-.868 1.58-2.348 1.754-3.322" fill="#FFF"/><path d="M1547.567 1317.23l-34.124-11.22-1.284-1.974.8-.52 1.1 1.69 33.805 11.118-.298.907" fill="#535B66"/><path d="M1548.337 1314.793l-34.1-4.672-1.62-1.706.692-.658 1.39 1.463 33.767 4.626-.13.947" fill="#535B66"/><path d="M1540.272 1293.264v-30.07c0-.615.5-1.114 1.115-1.114.616 0 1.115.5 1.115 1.115v30.07c0 .615-.5 1.114-1.115 1.114-.616 0-1.115-.5-1.115-1.116z" fill="#FFF"/></g><g><path d="M1404.637 1259.357c.137-.44.195-.954.555-1.16.18-.104.403-.102.61-.084 2.624.224 3.92 2.097 6.55 2.21 1.702.07 3.335-.758 4.632-1.864 1.042-.89.77-.524 1.004-1.874.013-.075-6.71-2.373-7.347-2.58-1.504-.49-3.052-.885-4.633-1.017-1.188-.1-2.473.006-3.455.863-1.16 1.012-1.23 1.917-1.6 3.412l-1.086 4.37c-.15.602-.44 1.26.058 1.697.476.416 1.047.845 2.475.72 2.05-.18 1.77-3.185 2.237-4.695" fill="#387D5D"/><path d="M1413.946 1255.83c0 .852-.69 1.543-1.542 1.543-.852 0-1.543-.69-1.543-1.543 0-.852.692-1.543 1.544-1.543.852 0 1.542.69 1.542 1.543" fill="#E18659"/><path d="M1415.892 1242.09c1.1 1.902 4.334 2.044 5.412-.09.8-1.583.06-3.613-1.482-4.298-1.736-.77-3.432-.093-4.143 1.566-.375.874-.194 2.12.212 2.822" fill="#231F1F"/><path d="M1410.29 1253.812c.03.235.135.474.342.72 1.054 1.243 5.975 3.65 6.932 1.298 1.067-2.625 1.74-5.794 2.807-8.418.196-.48.395-.984.344-1.5-.06-.59-.55-1.55-1.505-2.08-.898-.5-2.787-.408-3.505.264-1.35 1.264-2.21 2.93-3.032 4.562-.41.816-.797 1.662-1.28 2.438-.428.684-1.22 1.834-1.103 2.716" fill="#ED5A3F"/><path d="M1411.487 1261.316c-.97 0-1.95-.118-2.79-.36l-3.202-.923c-.592-.17-.933-.788-.763-1.38.17-.59.79-.932 1.38-.762l3.202.923c1.42.41 3.584.353 4.63-.123 1.035-.47 2.456-2.066 3.04-3.415l2.848-6.578c.245-.565.9-.825 1.467-.58.564.244.823.9.58 1.466l-2.85 6.578c-.805 1.863-2.635 3.865-4.164 4.56-.862.393-2.11.596-3.38.596M1399.682 1262.606c-.568.642-1.45.538-2.22.604-.51.044-1.254.205-1.49.73-.42.937.772 1.39 1.432 1.607 1.242.41 4.205 1.193 4.47 1.034 1.45-.868 1.58-2.348 1.754-3.322" fill="#FFF"/><path d="M1415.567 1272.23l-34.124-11.22-1.284-1.974.8-.52 1.1 1.69 33.805 11.118-.298.907" fill="#535B66"/><path d="M1416.337 1269.793l-34.1-4.672-1.62-1.706.692-.658 1.39 1.463 33.767 4.626-.13.947" fill="#535B66"/><path d="M1408.272 1248.264v-30.07c0-.615.5-1.114 1.115-1.114.616 0 1.115.5 1.115 1.115v30.07c0 .615-.5 1.114-1.115 1.114-.616 0-1.115-.5-1.115-1.116z" fill="#FFF"/></g><g><path d="M1398.637 1261.357c.137-.44.195-.954.555-1.16.18-.104.403-.102.61-.084 2.624.224 3.92 2.097 6.55 2.21 1.702.07 3.335-.758 4.632-1.864 1.042-.89.77-.524 1.004-1.874.013-.075-6.71-2.373-7.347-2.58-1.504-.49-3.052-.885-4.633-1.017-1.188-.1-2.473.006-3.455.863-1.16 1.012-1.23 1.917-1.6 3.412l-1.086 4.37c-.15.602-.44 1.26.058 1.697.476.416 1.047.845 2.475.72 2.05-.18 1.77-3.185 2.237-4.695" fill="#B49941"/><path d="M1407.946 1257.83c0 .852-.69 1.543-1.542 1.543-.852 0-1.543-.69-1.543-1.543 0-.852.692-1.543 1.544-1.543.852 0 1.542.69 1.542 1.543" fill="#E18659"/><path d="M1409.892 1244.09c1.1 1.902 4.334 2.044 5.412-.09.8-1.583.06-3.613-1.482-4.298-1.736-.77-3.432-.093-4.143 1.566-.375.874-.194 2.12.212 2.822" fill="#231F1F"/><path d="M1404.29 1255.812c.03.235.135.474.342.72 1.054 1.243 5.975 3.65 6.932 1.298 1.067-2.625 1.74-5.794 2.807-8.418.196-.48.395-.984.344-1.5-.06-.59-.55-1.55-1.505-2.08-.898-.5-2.787-.408-3.505.264-1.35 1.264-2.21 2.93-3.032 4.562-.41.816-.797 1.662-1.28 2.438-.428.684-1.22 1.834-1.103 2.716" fill="#5B587F"/><path d="M1405.487 1263.316c-.97 0-1.95-.118-2.79-.36l-3.202-.923c-.592-.17-.933-.788-.763-1.38.17-.59.79-.932 1.38-.762l3.202.923c1.42.41 3.584.353 4.63-.123 1.035-.47 2.456-2.066 3.04-3.415l2.848-6.578c.245-.565.9-.825 1.467-.58.564.244.823.9.58 1.466l-2.85 6.578c-.805 1.863-2.635 3.865-4.164 4.56-.862.393-2.11.596-3.38.596M1393.682 1264.606c-.568.642-1.45.538-2.22.604-.51.044-1.254.205-1.49.73-.42.937.772 1.39 1.432 1.607 1.242.41 4.205 1.193 4.47 1.034 1.45-.868 1.58-2.348 1.754-3.322" fill="#FFF"/><path d="M1409.567 1274.23l-34.124-11.22-1.284-1.974.8-.52 1.1 1.69 33.805 11.118-.298.907" fill="#535B66"/><path d="M1410.337 1271.793l-34.1-4.672-1.62-1.706.692-.658 1.39 1.463 33.767 4.626-.13.947" fill="#535B66"/><path d="M1402.272 1250.264v-36.07c0-.615.5-1.114 1.115-1.114.616 0 1.115.5 1.115 1.115v36.07c0 .615-.5 1.114-1.115 1.114-.616 0-1.115-.5-1.115-1.116z" fill="#FFF"/></g><g transform="translate(1692 486)"><circle fill="#ED5A3F" cx="40" cy="40" r="40"/><text font-family="CaslonGraphiqueEF" font-size="45" fill="#FFF"><tspan x="26" y="54.403">1</tspan></text></g><path d="M1705 1661.567s-87-27-141 21-37 99-63 212-124 139-163 132M1742 1673s182 75 279 4c40.102-29.353 47-60 51-80" stroke="#FAB131" stroke-width="3"/><g transform="translate(1689 1628)"><circle fill="#83BDBC" cx="40" cy="40" r="40"/><text font-family="CaslonGraphiqueEF" font-size="45" fill="#FFF"><tspan x="28" y="54.403">3</tspan></text></g></g></g></svg>