<?xml version="1.0" encoding="UTF-8" standalone="no"?>
<svg width="1243px" height="305px" viewBox="0 0 1243 305" version="1.1" xmlns="http://www.w3.org/2000/svg" xmlns:xlink="http://www.w3.org/1999/xlink" xmlns:sketch="http://www.bohemiancoding.com/sketch/ns">
    <!-- Generator: Sketch 3.3.3 (12081) - http://www.bohemiancoding.com/sketch -->
    <title>Group</title>
    <desc>Created with Sketch.</desc>
    <defs></defs>
    <g id="Desktop" stroke="none" stroke-width="1" fill="none" fill-rule="evenodd" sketch:type="MSPage">
        <g id="Index-page" sketch:type="MSArtboardGroup" transform="translate(-98.000000, -2611.000000)">
            <g id="Group" sketch:type="MSLayerGroup" transform="translate(98.000000, 2612.000000)">
                <path d="M0.0781248734,0.9140625 C249.722656,176.09375 916.246094,261.746094 1241.83594,261.746094" id="Path-254" stroke="#FFFFFF" stroke-width="3" sketch:type="MSShapeGroup" transform="translate(620.957031, 131.330078) scale(-1, 1) translate(-620.957031, -131.330078) "></path>
                <g id="Imported-Layers-Copy-7" transform="translate(997.000000, 144.330078) scale(-1, 1) translate(-997.000000, -144.330078) translate(976.000000, 116.330078)" sketch:type="MSShapeGroup">
                    <path d="M24.6374961,42.3568626 C24.7738402,41.9156559 24.8321368,41.4030914 25.191792,41.1969826 C25.3730531,41.0928132 25.59509,41.0950431 25.8034288,41.1128825 C28.4261403,41.3368308 29.7220458,43.2102872 32.3517657,43.3217834 C34.0544734,43.3940968 35.6874163,42.5652014 36.9836404,41.4588396 C38.025653,40.5694177 37.7532834,40.9360812 37.9883813,39.5863389 C38.0014423,39.5105214 31.277897,37.2130606 30.6407753,37.0056775 C29.1358939,36.5154123 27.5883253,36.121034 26.0069892,35.9888312 C24.8193944,35.8894403 23.5336828,35.9961581 22.5518782,36.8527683 C21.3913611,37.8654732 21.3225519,38.7698675 20.9514285,40.2648735 C20.5895434,41.7219709 20.2276583,43.1793867 19.8657732,44.6364841 C19.7166867,45.2372898 19.4255221,45.8960737 19.9240698,46.3321835 C20.3996811,46.7482239 20.9705422,47.1773254 22.3986505,47.0527681 C24.4495452,46.8734184 24.1708045,43.8668411 24.6374961,42.3568626" id="Fill-1" fill="#387D5D"></path>
                    <path d="M33.9464813,38.8297569 C33.9464813,39.6819072 33.2558414,40.3728657 32.4036911,40.3728657 C31.5515408,40.3728657 30.8605823,39.6819072 30.8605823,38.8297569 C30.8605823,37.9776066 31.5515408,37.2866481 32.4036911,37.2866481 C33.2558414,37.2866481 33.9464813,37.9776066 33.9464813,38.8297569" id="Fill-2" fill="#E18659"></path>
                    <path d="M35.8922509,25.0902275 C36.9931972,26.9917172 40.2256342,27.1337953 41.3036441,25.0003933 C42.1032318,23.4174644 41.3638521,21.3869576 39.821699,20.7017332 C38.0861795,19.9308159 36.389843,20.6093505 35.6794523,22.2677783 C35.3048247,23.1419093 35.4857673,24.3881193 35.8922509,25.0902275" id="Fill-3" fill="#231F1F"></path>
                    <path d="M30.2897213,36.812311 C30.3206217,37.0467718 30.4251096,37.2863296 30.6324928,37.5313029 C31.6856549,38.7749644 36.6074201,41.1816917 37.5637397,38.8297569 C38.6306,36.2054526 39.3040376,33.0360907 40.3708979,30.412105 C40.5661757,29.9320338 40.7652763,29.427752 40.7136694,28.9123205 C40.6544171,28.320753 40.1651076,27.3615663 39.2094251,26.8305254 C38.3123577,26.3319776 36.4232919,26.4237232 35.7052557,27.0962051 C34.3555134,28.3602546 33.4941249,30.0269649 32.6725564,31.6579965 C32.2616129,32.4741494 31.8764729,33.3199284 31.3916233,34.0962612 C30.9647517,34.7802114 30.1744023,35.9302161 30.2897213,36.812311" id="Fill-4" fill="#5B587F"></path>
                    <path d="M31.4865544,44.3156933 C30.5181294,44.3156933 29.5356877,44.1981443 28.696917,43.9563567 L25.4947434,43.0334859 C24.9028573,42.8630558 24.5616786,42.2453663 24.7321087,41.6534803 C24.9025387,41.0619128 25.5205468,40.7213712 26.1121143,40.8908456 L29.314288,41.8133978 C30.7353879,42.22243 32.8984161,42.1657261 33.9432957,41.6904333 C34.9792555,41.2196004 36.4003555,39.6236105 36.983959,38.275461 L39.8322115,31.6968609 C40.0768663,31.1320525 40.7327831,30.8724254 41.2985471,31.1167616 C41.8636741,31.3614163 42.1233012,32.0179703 41.8786464,32.5830972 L39.0303939,39.1613787 C38.2247535,41.0227298 36.3952585,43.0252033 34.8661664,43.7206216 C34.0035037,44.11277 32.7572936,44.3156933 31.4865544,44.3156933" id="Fill-5" fill="#FFFFFF"></path>
                    <path d="M19.6822821,45.6058647 C19.113651,46.2480834 18.2334674,46.1442326 17.461913,46.2101747 C16.9509414,46.2538175 16.2080575,46.4153279 15.9732781,46.9387233 C15.5524592,47.876885 16.7438768,48.3286043 17.4039349,48.5468185 C18.6463222,48.957762 21.6089381,49.740466 21.8746179,49.5811856 C23.3237512,48.7115145 23.4540426,47.2317993 23.6279768,46.2579588" id="Fill-6" fill="#FFFFFF"></path>
                    <path d="M35.5666818,55.2314994 L1.44339921,44.0095563 L0.158643303,42.0363904 L0.95950528,41.5152249 L2.06077014,43.206783 L35.8651733,54.3239195 L35.5666818,55.2314994" id="Fill-7" fill="#535B66"></path>
                    <path d="M36.3369619,52.7932346 L2.23788997,48.1205841 L0.616096683,46.4140536 L1.30896653,45.7555883 L2.6998032,47.2190569 L36.4666162,51.8461532 L36.3369619,52.7932346" id="Fill-8" fill="#535B66"></path>
                    <path d="M28.2722754,31.2639367 L28.2722754,1.19460319 C28.2722754,0.578825064 28.7714603,0.0796402124 29.3872384,0.0796402124 C30.0030165,0.0796402124 30.5022014,0.578825064 30.5022014,1.19460319 L30.5022014,31.2639367 C30.5022014,31.8797148 30.0030165,32.3788997 29.3872384,32.3788997 C28.7714603,32.3788997 28.2722754,31.8797148 28.2722754,31.2639367 Z" id="Fill-9" fill="#FFFFFF"></path>
                </g>
                <g id="Imported-Layers-Copy-6" transform="translate(267.000000, 276.764359) scale(-1, 1) translate(-267.000000, -276.764359) translate(246.000000, 248.764359)" sketch:type="MSShapeGroup">
                    <path d="M24.6374961,42.3568626 C24.7738402,41.9156559 24.8321368,41.4030914 25.191792,41.1969826 C25.3730531,41.0928132 25.59509,41.0950431 25.8034288,41.1128825 C28.4261403,41.3368308 29.7220458,43.2102872 32.3517657,43.3217834 C34.0544734,43.3940968 35.6874163,42.5652014 36.9836404,41.4588396 C38.025653,40.5694177 37.7532834,40.9360812 37.9883813,39.5863389 C38.0014423,39.5105214 31.277897,37.2130606 30.6407753,37.0056775 C29.1358939,36.5154123 27.5883253,36.121034 26.0069892,35.9888312 C24.8193944,35.8894403 23.5336828,35.9961581 22.5518782,36.8527683 C21.3913611,37.8654732 21.3225519,38.7698675 20.9514285,40.2648735 C20.5895434,41.7219709 20.2276583,43.1793867 19.8657732,44.6364841 C19.7166867,45.2372898 19.4255221,45.8960737 19.9240698,46.3321835 C20.3996811,46.7482239 20.9705422,47.1773254 22.3986505,47.0527681 C24.4495452,46.8734184 24.1708045,43.8668411 24.6374961,42.3568626" id="Fill-1" fill="#387D5D"></path>
                    <path d="M33.9464813,38.8297569 C33.9464813,39.6819072 33.2558414,40.3728657 32.4036911,40.3728657 C31.5515408,40.3728657 30.8605823,39.6819072 30.8605823,38.8297569 C30.8605823,37.9776066 31.5515408,37.2866481 32.4036911,37.2866481 C33.2558414,37.2866481 33.9464813,37.9776066 33.9464813,38.8297569" id="Fill-2" fill="#E18659"></path>
                    <path d="M35.8922509,25.0902275 C36.9931972,26.9917172 40.2256342,27.1337953 41.3036441,25.0003933 C42.1032318,23.4174644 41.3638521,21.3869576 39.821699,20.7017332 C38.0861795,19.9308159 36.389843,20.6093505 35.6794523,22.2677783 C35.3048247,23.1419093 35.4857673,24.3881193 35.8922509,25.0902275" id="Fill-3" fill="#231F1F"></path>
                    <path d="M30.2897213,36.812311 C30.3206217,37.0467718 30.4251096,37.2863296 30.6324928,37.5313029 C31.6856549,38.7749644 36.6074201,41.1816917 37.5637397,38.8297569 C38.6306,36.2054526 39.3040376,33.0360907 40.3708979,30.412105 C40.5661757,29.9320338 40.7652763,29.427752 40.7136694,28.9123205 C40.6544171,28.320753 40.1651076,27.3615663 39.2094251,26.8305254 C38.3123577,26.3319776 36.4232919,26.4237232 35.7052557,27.0962051 C34.3555134,28.3602546 33.4941249,30.0269649 32.6725564,31.6579965 C32.2616129,32.4741494 31.8764729,33.3199284 31.3916233,34.0962612 C30.9647517,34.7802114 30.1744023,35.9302161 30.2897213,36.812311" id="Fill-4" fill="#FFBC39"></path>
                    <path d="M31.4865544,44.3156933 C30.5181294,44.3156933 29.5356877,44.1981443 28.696917,43.9563567 L25.4947434,43.0334859 C24.9028573,42.8630558 24.5616786,42.2453663 24.7321087,41.6534803 C24.9025387,41.0619128 25.5205468,40.7213712 26.1121143,40.8908456 L29.314288,41.8133978 C30.7353879,42.22243 32.8984161,42.1657261 33.9432957,41.6904333 C34.9792555,41.2196004 36.4003555,39.6236105 36.983959,38.275461 L39.8322115,31.6968609 C40.0768663,31.1320525 40.7327831,30.8724254 41.2985471,31.1167616 C41.8636741,31.3614163 42.1233012,32.0179703 41.8786464,32.5830972 L39.0303939,39.1613787 C38.2247535,41.0227298 36.3952585,43.0252033 34.8661664,43.7206216 C34.0035037,44.11277 32.7572936,44.3156933 31.4865544,44.3156933" id="Fill-5" fill="#FFFFFF"></path>
                    <path d="M19.6822821,45.6058647 C19.113651,46.2480834 18.2334674,46.1442326 17.461913,46.2101747 C16.9509414,46.2538175 16.2080575,46.4153279 15.9732781,46.9387233 C15.5524592,47.876885 16.7438768,48.3286043 17.4039349,48.5468185 C18.6463222,48.957762 21.6089381,49.740466 21.8746179,49.5811856 C23.3237512,48.7115145 23.4540426,47.2317993 23.6279768,46.2579588" id="Fill-6" fill="#FFFFFF"></path>
                    <path d="M35.5666818,55.2314994 L1.44339921,44.0095563 L0.158643303,42.0363904 L0.95950528,41.5152249 L2.06077014,43.206783 L35.8651733,54.3239195 L35.5666818,55.2314994" id="Fill-7" fill="#535B66"></path>
                    <path d="M36.3369619,52.7932346 L2.23788997,48.1205841 L0.616096683,46.4140536 L1.30896653,45.7555883 L2.6998032,47.2190569 L36.4666162,51.8461532 L36.3369619,52.7932346" id="Fill-8" fill="#535B66"></path>
                    <path d="M28.2722754,31.2639367 L28.2722754,1.19460319 C28.2722754,0.578825064 28.7714603,0.0796402124 29.3872384,0.0796402124 C30.0030165,0.0796402124 30.5022014,0.578825064 30.5022014,1.19460319 L30.5022014,31.2639367 C30.5022014,31.8797148 30.0030165,32.3788997 29.3872384,32.3788997 C28.7714603,32.3788997 28.2722754,31.8797148 28.2722754,31.2639367 Z" id="Fill-9" fill="#FFFFFF"></path>
                </g>
                <g id="Imported-Layers-Copy-4" transform="translate(629.468750, 230.764359) scale(-1, 1) translate(-629.468750, -230.764359) translate(608.468750, 202.764359)" sketch:type="MSShapeGroup">
                    <path d="M24.6374961,42.3568626 C24.7738402,41.9156559 24.8321368,41.4030914 25.191792,41.1969826 C25.3730531,41.0928132 25.59509,41.0950431 25.8034288,41.1128825 C28.4261403,41.3368308 29.7220458,43.2102872 32.3517657,43.3217834 C34.0544734,43.3940968 35.6874163,42.5652014 36.9836404,41.4588396 C38.025653,40.5694177 37.7532834,40.9360812 37.9883813,39.5863389 C38.0014423,39.5105214 31.277897,37.2130606 30.6407753,37.0056775 C29.1358939,36.5154123 27.5883253,36.121034 26.0069892,35.9888312 C24.8193944,35.8894403 23.5336828,35.9961581 22.5518782,36.8527683 C21.3913611,37.8654732 21.3225519,38.7698675 20.9514285,40.2648735 C20.5895434,41.7219709 20.2276583,43.1793867 19.8657732,44.6364841 C19.7166867,45.2372898 19.4255221,45.8960737 19.9240698,46.3321835 C20.3996811,46.7482239 20.9705422,47.1773254 22.3986505,47.0527681 C24.4495452,46.8734184 24.1708045,43.8668411 24.6374961,42.3568626" id="Fill-1" fill="#387D5D"></path>
                    <path d="M33.9464813,38.8297569 C33.9464813,39.6819072 33.2558414,40.3728657 32.4036911,40.3728657 C31.5515408,40.3728657 30.8605823,39.6819072 30.8605823,38.8297569 C30.8605823,37.9776066 31.5515408,37.2866481 32.4036911,37.2866481 C33.2558414,37.2866481 33.9464813,37.9776066 33.9464813,38.8297569" id="Fill-2" fill="#E18659"></path>
                    <path d="M35.8922509,25.0902275 C36.9931972,26.9917172 40.2256342,27.1337953 41.3036441,25.0003933 C42.1032318,23.4174644 41.3638521,21.3869576 39.821699,20.7017332 C38.0861795,19.9308159 36.389843,20.6093505 35.6794523,22.2677783 C35.3048247,23.1419093 35.4857673,24.3881193 35.8922509,25.0902275" id="Fill-3" fill="#231F1F"></path>
                    <path d="M30.2897213,36.812311 C30.3206217,37.0467718 30.4251096,37.2863296 30.6324928,37.5313029 C31.6856549,38.7749644 36.6074201,41.1816917 37.5637397,38.8297569 C38.6306,36.2054526 39.3040376,33.0360907 40.3708979,30.412105 C40.5661757,29.9320338 40.7652763,29.427752 40.7136694,28.9123205 C40.6544171,28.320753 40.1651076,27.3615663 39.2094251,26.8305254 C38.3123577,26.3319776 36.4232919,26.4237232 35.7052557,27.0962051 C34.3555134,28.3602546 33.4941249,30.0269649 32.6725564,31.6579965 C32.2616129,32.4741494 31.8764729,33.3199284 31.3916233,34.0962612 C30.9647517,34.7802114 30.1744023,35.9302161 30.2897213,36.812311" id="Fill-4" fill="#ED5A3F"></path>
                    <path d="M31.4865544,44.3156933 C30.5181294,44.3156933 29.5356877,44.1981443 28.696917,43.9563567 L25.4947434,43.0334859 C24.9028573,42.8630558 24.5616786,42.2453663 24.7321087,41.6534803 C24.9025387,41.0619128 25.5205468,40.7213712 26.1121143,40.8908456 L29.314288,41.8133978 C30.7353879,42.22243 32.8984161,42.1657261 33.9432957,41.6904333 C34.9792555,41.2196004 36.4003555,39.6236105 36.983959,38.275461 L39.8322115,31.6968609 C40.0768663,31.1320525 40.7327831,30.8724254 41.2985471,31.1167616 C41.8636741,31.3614163 42.1233012,32.0179703 41.8786464,32.5830972 L39.0303939,39.1613787 C38.2247535,41.0227298 36.3952585,43.0252033 34.8661664,43.7206216 C34.0035037,44.11277 32.7572936,44.3156933 31.4865544,44.3156933" id="Fill-5" fill="#FFFFFF"></path>
                    <path d="M19.6822821,45.6058647 C19.113651,46.2480834 18.2334674,46.1442326 17.461913,46.2101747 C16.9509414,46.2538175 16.2080575,46.4153279 15.9732781,46.9387233 C15.5524592,47.876885 16.7438768,48.3286043 17.4039349,48.5468185 C18.6463222,48.957762 21.6089381,49.740466 21.8746179,49.5811856 C23.3237512,48.7115145 23.4540426,47.2317993 23.6279768,46.2579588" id="Fill-6" fill="#FFFFFF"></path>
                    <path d="M35.5666818,55.2314994 L1.44339921,44.0095563 L0.158643303,42.0363904 L0.95950528,41.5152249 L2.06077014,43.206783 L35.8651733,54.3239195 L35.5666818,55.2314994" id="Fill-7" fill="#535B66"></path>
                    <path d="M36.3369619,52.7932346 L2.23788997,48.1205841 L0.616096683,46.4140536 L1.30896653,45.7555883 L2.6998032,47.2190569 L36.4666162,51.8461532 L36.3369619,52.7932346" id="Fill-8" fill="#535B66"></path>
                    <path d="M28.2722754,31.2639367 L28.2722754,1.19460319 C28.2722754,0.578825064 28.7714603,0.0796402124 29.3872384,0.0796402124 C30.0030165,0.0796402124 30.5022014,0.578825064 30.5022014,1.19460319 L30.5022014,31.2639367 C30.5022014,31.8797148 30.0030165,32.3788997 29.3872384,32.3788997 C28.7714603,32.3788997 28.2722754,31.8797148 28.2722754,31.2639367 Z" id="Fill-9" fill="#FFFFFF"></path>
                </g>
                <g id="Imported-Layers-Copy-5" transform="translate(635.263672, 232.764359) scale(-1, 1) translate(-635.263672, -232.764359) translate(614.263672, 201.764359)" sketch:type="MSShapeGroup">
                    <path d="M24.6374961,48.3568626 C24.7738402,47.9156559 24.8321368,47.4030914 25.191792,47.1969826 C25.3730531,47.0928132 25.59509,47.0950431 25.8034288,47.1128825 C28.4261403,47.3368308 29.7220458,49.2102872 32.3517657,49.3217834 C34.0544734,49.3940968 35.6874163,48.5652014 36.9836404,47.4588396 C38.025653,46.5694177 37.7532834,46.9360812 37.9883813,45.5863389 C38.0014423,45.5105214 31.277897,43.2130606 30.6407753,43.0056775 C29.1358939,42.5154123 27.5883253,42.121034 26.0069892,41.9888312 C24.8193944,41.8894403 23.5336828,41.9961581 22.5518782,42.8527683 C21.3913611,43.8654732 21.3225519,44.7698675 20.9514285,46.2648735 C20.5895434,47.7219709 20.2276583,49.1793867 19.8657732,50.6364841 C19.7166867,51.2372898 19.4255221,51.8960737 19.9240698,52.3321835 C20.3996811,52.7482239 20.9705422,53.1773254 22.3986505,53.0527681 C24.4495452,52.8734184 24.1708045,49.8668411 24.6374961,48.3568626" id="Fill-1" fill="#B49941"></path>
                    <path d="M33.9464813,44.8297569 C33.9464813,45.6819072 33.2558414,46.3728657 32.4036911,46.3728657 C31.5515408,46.3728657 30.8605823,45.6819072 30.8605823,44.8297569 C30.8605823,43.9776066 31.5515408,43.2866481 32.4036911,43.2866481 C33.2558414,43.2866481 33.9464813,43.9776066 33.9464813,44.8297569" id="Fill-2" fill="#E18659"></path>
                    <path d="M35.8922509,31.0902275 C36.9931972,32.9917172 40.2256342,33.1337953 41.3036441,31.0003933 C42.1032318,29.4174644 41.3638521,27.3869576 39.821699,26.7017332 C38.0861795,25.9308159 36.389843,26.6093505 35.6794523,28.2677783 C35.3048247,29.1419093 35.4857673,30.3881193 35.8922509,31.0902275" id="Fill-3" fill="#231F1F"></path>
                    <path d="M30.2897213,42.812311 C30.3206217,43.0467718 30.4251096,43.2863296 30.6324928,43.5313029 C31.6856549,44.7749644 36.6074201,47.1816917 37.5637397,44.8297569 C38.6306,42.2054526 39.3040376,39.0360907 40.3708979,36.412105 C40.5661757,35.9320338 40.7652763,35.427752 40.7136694,34.9123205 C40.6544171,34.320753 40.1651076,33.3615663 39.2094251,32.8305254 C38.3123577,32.3319776 36.4232919,32.4237232 35.7052557,33.0962051 C34.3555134,34.3602546 33.4941249,36.0269649 32.6725564,37.6579965 C32.2616129,38.4741494 31.8764729,39.3199284 31.3916233,40.0962612 C30.9647517,40.7802114 30.1744023,41.9302161 30.2897213,42.812311" id="Fill-4" fill="#5B587F"></path>
                    <path d="M31.4865544,50.3156933 C30.5181294,50.3156933 29.5356877,50.1981443 28.696917,49.9563567 L25.4947434,49.0334859 C24.9028573,48.8630558 24.5616786,48.2453663 24.7321087,47.6534803 C24.9025387,47.0619128 25.5205468,46.7213712 26.1121143,46.8908456 L29.314288,47.8133978 C30.7353879,48.22243 32.8984161,48.1657261 33.9432957,47.6904333 C34.9792555,47.2196004 36.4003555,45.6236105 36.983959,44.275461 L39.8322115,37.6968609 C40.0768663,37.1320525 40.7327831,36.8724254 41.2985471,37.1167616 C41.8636741,37.3614163 42.1233012,38.0179703 41.8786464,38.5830972 L39.0303939,45.1613787 C38.2247535,47.0227298 36.3952585,49.0252033 34.8661664,49.7206216 C34.0035037,50.11277 32.7572936,50.3156933 31.4865544,50.3156933" id="Fill-5" fill="#FFFFFF"></path>
                    <path d="M19.6822821,51.6058647 C19.113651,52.2480834 18.2334674,52.1442326 17.461913,52.2101747 C16.9509414,52.2538175 16.2080575,52.4153279 15.9732781,52.9387233 C15.5524592,53.876885 16.7438768,54.3286043 17.4039349,54.5468185 C18.6463222,54.957762 21.6089381,55.740466 21.8746179,55.5811856 C23.3237512,54.7115145 23.4540426,53.2317993 23.6279768,52.2579588" id="Fill-6" fill="#FFFFFF"></path>
                    <path d="M35.5666818,61.2314994 L1.44339921,50.0095563 L0.158643303,48.0363904 L0.95950528,47.5152249 L2.06077014,49.206783 L35.8651733,60.3239195 L35.5666818,61.2314994" id="Fill-7" fill="#535B66"></path>
                    <path d="M36.3369619,58.7932346 L2.23788997,54.1205841 L0.616096683,52.4140536 L1.30896653,51.7555883 L2.6998032,53.2190569 L36.4666162,57.8461532 L36.3369619,58.7932346" id="Fill-8" fill="#535B66"></path>
                    <path d="M28.2722754,37.2639367 L28.2722754,1.19460319 C28.2722754,0.578825064 28.7714603,0.0796402124 29.3872384,0.0796402124 C30.0030165,0.0796402124 30.5022014,0.578825064 30.5022014,1.19460319 L30.5022014,37.2639367 C30.5022014,37.8797148 30.0030165,38.3788997 29.3872384,38.3788997 C28.7714603,38.3788997 28.2722754,37.8797148 28.2722754,37.2639367 Z" id="Fill-9" fill="#FFFFFF"></path>
                </g>
            </g>
        </g>
    </g>
</svg>