<svg width="91" height="147" viewBox="0 0 91 146" xmlns="http://www.w3.org/2000/svg"><title>dollar-hand</title><g fill="none" fill-rule="evenodd"><path d="M78.497 100.64c-1.912 6.96-7.97 12.204-15.35 12.916v32.57H27.012v-34.38c-5.77-2.915-9.728-8.897-9.728-15.805 0-9.774 7.927-17.697 17.7-17.697H49.25v-63.2c0-3.84 3.117-6.954 6.947-6.954 3.838 0 6.95 3.115 6.95 6.953v63.282c.707.068 1.403.178 2.084.327V30.904c0-3.84 3.12-6.954 6.95-6.954 3.837 0 6.948 3.116 6.948 6.954v66.84c0 1.032-.226 2.013-.63 2.895zM17.285 15.027c0-3.832 3.12-6.94 6.948-6.94 3.838 0 6.95 3.117 6.95 6.94v55.516c0 3.833-3.12 6.94-6.95 6.94-3.837 0-6.948-3.117-6.948-6.94V15.028zm15.982-8.053c0-3.833 3.12-6.94 6.948-6.94 3.838 0 6.95 3.107 6.95 6.94v63.568c0 3.833-3.12 6.94-6.95 6.94-3.837 0-6.948-3.107-6.948-6.94V6.975z" fill="#F4CCC5"/><g transform="translate(-.087 37.368)"><path fill="#7CB7B6" d="M.27 0h90.58v41.174H.27z"/><ellipse fill="#FFF" cx="45.418" cy="19.861" rx="12.196" ry="12.116"/><text font-family="Futura Std" font-size="13.881" font-weight="633" fill="#7CB7B6"><tspan x="41.22" y="24.762">$</tspan></text></g><path d="M22.844 78.652V59.52c0-3.836-3.11-6.956-6.95-6.956H8.947v42.32c0 .137.004.272.012.407-.008.216-.012.433-.012.65 0 9.777 7.925 17.698 17.7 17.698h6.988c9.776 0 17.7-7.923 17.7-17.697 0-9.776-7.925-17.697-17.7-17.697h-6.988c-1.305 0-2.578.14-3.802.41z" fill="#F6D9D4"/></g></svg>