<svg width="172" height="172" viewBox="0 0 129 129" xmlns="http://www.w3.org/2000/svg"><g fill="#fff"><path d="M58.02 5.36C72.7 3.67 87.8 7.92 99.71 16.6c-1.24 1.34-2.49 2.67-3.75 3.99-9.31-6.5-20.55-10.29-31.95-10.14-15.92.04-31.65 7.5-41.63 19.93-9.62 11.73-13.94 27.65-11.31 42.61 2.32 14.46 10.94 27.75 23.2 35.77 13.08 8.78 30.08 11.31 45.16 6.73 16.29-4.67 29.91-17.54 35.52-33.53 6.34-17.17 2.81-37.35-8.67-51.55 1.63-.85 3.28-1.69 4.93-2.53 8.95 11.53 13.39 26.46 12.13 41.01-1.12 13.66-7.23 26.84-16.89 36.57-10.79 11.06-26.08 17.5-41.51 17.71-15.6.31-31.19-5.91-42.32-16.83-9.87-9.53-16.13-22.65-17.46-36.29-1.61-15.11 3.08-30.7 12.55-42.55C27.45 15.1 42.34 6.98 58.02 5.36z"/><path d="M98.79 22.79c1.28-1.29 2.59-2.57 3.89-3.85 2.09 1.94 4.19 3.88 6.09 6.01-1.58.89-3.15 1.79-4.73 2.66-1.78-1.58-3.53-3.19-5.25-4.82zM53.15 21.18c4.8-1.09 9.04 2.23 12.23 5.39 2.14 2.3 4.51 5.18 4.05 8.54-1.08 3.43-5.17 4.2-8.28 4.52-4.94.33-11.22-.1-13.97-4.91-3.27-5.05.09-12.5 5.97-13.54m.12 5.09c-2.81 1.19-3.32 5.45-.77 7.19 2.58 2.22 7.03-.05 6.82-3.42.12-2.97-3.45-5.15-6.05-3.77zM32.09 47.46c3.55-.84 7.09-2.54 10.8-2.26 4.61.81 5.38 7.88 1.04 9.64-7.48 2.45-15.22 4.05-22.75 6.32-1.82.21-1.1 3.29.79 2.18 7.41-1.8 14.72-4.02 22.13-5.81 2.44-.77 5.37.45 6.33 2.87 1.31 2.67-.36 6.16-3.19 6.95-6.78 2.11-13.75 3.59-20.53 5.72-.01.53-.02 1.6-.03 2.13 14.21-3.13 28.13-7.52 42.26-11 3.08-1.01 6.62 1.52 6.6 4.76.17 2.53-1.82 4.76-4.22 5.29-8.61 2.48-17.37 4.47-25.93 7.1-.12.43-.37 1.31-.5 1.74 1.54.54 3.1-.09 4.59-.44 6.56-1.76 13.1-3.6 19.68-5.25 2.74-.88 5.94.93 6.51 3.76.74 2.75-1.26 5.66-3.98 6.25-10.08 2.83-20.27 5.31-30.32 8.22-1.67 1.11.03 2.73 1.51 2 13.74-3.6 27.42-7.42 41.18-10.96 2.97-.96 6.41 1.33 6.57 4.47.3 2.48-1.52 4.92-3.93 5.49-5.88 1.63-11.77 3.29-17.7 4.7-2.06.61-3.1-2.71-1.28-3.58 5.94-1.98 12.15-3.13 18.11-5.07 1.45-.24.92-2.79-.65-2.17-13.83 3.53-27.58 7.41-41.39 11-2.75.99-6.11-.59-6.83-3.48-.88-2.76 1.07-5.82 3.85-6.42 9.92-2.82 19.96-5.26 29.88-8.1 1.16-.3 1.44-1 .83-2.08-1.11-.6-2.37.2-3.51.34-7.35 1.83-14.58 4.3-22.03 5.63-5.05.14-6.83-7.51-2.28-9.63 8.94-3.01 18.28-4.8 27.29-7.65l.71-.91-.66-1.23c-12.49 2.74-24.76 6.54-37.16 9.7-3.06.68-6.82 2.62-9.58.16-3.06-2.36-1.93-7.78 1.79-8.76 6.51-1.99 13.16-3.48 19.68-5.43 1.82-.11 1.17-3.29-.64-2.24-7.44 1.75-14.75 4-22.17 5.81-2.39.79-5.31-.31-6.31-2.67-1.4-2.62.12-6.2 2.94-7.06 7.73-2.39 15.67-4.03 23.38-6.5-.13-.47-.38-1.4-.51-1.86-3.58.09-6.9 1.88-10.45 2.28-2.06-.53-2.01-3.65.08-3.95zM97.43 51.49c2.01-.57 4.57-.69 6 1.14 2.4 2.8 2.27 6.85 1.97 10.32-.62 4.58-1.76 9.8-5.81 12.6-4.34 3.16-10.93 2.22-14.24-1.99-3.09-3.68-3.08-9.44-.06-13.16 3.13-3.97 7.28-7.35 12.14-8.91m-5.15 10.72c-3.34.82-4.85 5.43-2.38 7.93 2.16 2.7 6.95 1.93 8.15-1.3 1.82-3.54-2.05-7.81-5.77-6.63z"/></g><path fill="#3e372c" d="M99.71 16.6c3.86-4.04 7.71-8.09 11.58-12.12.97.94 1.95 1.89 2.93 2.83-3.85 3.87-7.68 7.76-11.54 11.63-1.3 1.28-2.61 2.56-3.89 3.85-5.86 5.86-11.67 11.76-17.6 17.55 7.51-4.42 15.22-8.5 22.85-12.73 1.58-.87 3.15-1.77 4.73-2.66 5.06-2.78 10.14-5.53 15.19-8.34.65 1.2 1.31 2.4 1.96 3.61-4.91 2.53-9.8 5.12-14.71 7.66-1.65.84-3.3 1.68-4.93 2.53-9.41 4.9-18.84 9.78-28.27 14.65-1.69.87-3.33 1.89-4.7 3.24-5.04 4.92-9.86 10.06-15.02 14.87-.3-.41-.9-1.22-1.2-1.63 3.69-3.81 7.25-7.74 11.04-11.46-4.04 2.28-8.17 4.37-12.3 6.46-.24-.44-.71-1.33-.94-1.77 6.03-3.64 12.52-6.53 18.36-10.48 7.8-7.66 15.1-15.84 22.71-23.7 1.26-1.32 2.51-2.65 3.75-3.99z"/><g fill="#86aaa4"><path d="M22.38 30.38c9.98-12.43 25.71-19.89 41.63-19.93 11.4-.15 22.64 3.64 31.95 10.14-7.61 7.86-14.91 16.04-22.71 23.7-5.84 3.95-12.33 6.84-18.36 10.48.23.44.7 1.33.94 1.77 4.13-2.09 8.26-4.18 12.3-6.46-3.79 3.72-7.35 7.65-11.04 11.46.3.41.9 1.22 1.2 1.63 5.16-4.81 9.98-9.95 15.02-14.87 1.37-1.35 3.01-2.37 4.7-3.24 9.43-4.87 18.86-9.75 28.27-14.65 11.48 14.2 15.01 34.38 8.67 51.55-5.61 15.99-19.23 28.86-35.52 33.53-15.08 4.58-32.08 2.05-45.16-6.73-12.26-8.02-20.88-21.31-23.2-35.77-2.63-14.96 1.69-30.88 11.31-42.61m30.77-9.2c-5.88 1.04-9.24 8.49-5.97 13.54 2.75 4.81 9.03 5.24 13.97 4.91 3.11-.32 7.2-1.09 8.28-4.52.46-3.36-1.91-6.24-4.05-8.54-3.19-3.16-7.43-6.48-12.23-5.39M32.09 47.46c-2.09.3-2.14 3.42-.08 3.95 3.55-.4 6.87-2.19 10.45-2.28.13.46.38 1.39.51 1.86-7.71 2.47-15.65 4.11-23.38 6.5-2.82.86-4.34 4.44-2.94 7.06 1 2.36 3.92 3.46 6.31 2.67 7.42-1.81 14.73-4.06 22.17-5.81 1.81-1.05 2.46 2.13.64 2.24-6.52 1.95-13.17 3.44-19.68 5.43-3.72.98-4.85 6.4-1.79 8.76 2.76 2.46 6.52.52 9.58-.16 12.4-3.16 24.67-6.96 37.16-9.7l.66 1.23-.71.91c-9.01 2.85-18.35 4.64-27.29 7.65-4.55 2.12-2.77 9.77 2.28 9.63 7.45-1.33 14.68-3.8 22.03-5.63 1.14-.14 2.4-.94 3.51-.34.61 1.08.33 1.78-.83 2.08-9.92 2.84-19.96 5.28-29.88 8.1-2.78.6-4.73 3.66-3.85 6.42.72 2.89 4.08 4.47 6.83 3.48 13.81-3.59 27.56-7.47 41.39-11 1.57-.62 2.1 1.93.65 2.17-5.96 1.94-12.17 3.09-18.11 5.07-1.82.87-.78 4.19 1.28 3.58 5.93-1.41 11.82-3.07 17.7-4.7 2.41-.57 4.23-3.01 3.93-5.49-.16-3.14-3.6-5.43-6.57-4.47-13.76 3.54-27.44 7.36-41.18 10.96-1.48.73-3.18-.89-1.51-2 10.05-2.91 20.24-5.39 30.32-8.22 2.72-.59 4.72-3.5 3.98-6.25-.57-2.83-3.77-4.64-6.51-3.76-6.58 1.65-13.12 3.49-19.68 5.25-1.49.35-3.05.98-4.59.44.13-.43.38-1.31.5-1.74 8.56-2.63 17.32-4.62 25.93-7.1 2.4-.53 4.39-2.76 4.22-5.29.02-3.24-3.52-5.77-6.6-4.76-14.13 3.48-28.05 7.87-42.26 11 .01-.53.02-1.6.03-2.13 6.78-2.13 13.75-3.61 20.53-5.72 2.83-.79 4.5-4.28 3.19-6.95-.96-2.42-3.89-3.64-6.33-2.87-7.41 1.79-14.72 4.01-22.13 5.81-1.89 1.11-2.61-1.97-.79-2.18 7.53-2.27 15.27-3.87 22.75-6.32 4.34-1.76 3.57-8.83-1.04-9.64-3.71-.28-7.25 1.42-10.8 2.26m65.34 4.03c-4.86 1.56-9.01 4.94-12.14 8.91-3.02 3.72-3.03 9.48.06 13.16 3.31 4.21 9.9 5.15 14.24 1.99 4.05-2.8 5.19-8.02 5.81-12.6.3-3.47.43-7.52-1.97-10.32-1.43-1.83-3.99-1.71-6-1.14z"/><path d="M81.19 40.34c5.93-5.79 11.74-11.69 17.6-17.55 1.72 1.63 3.47 3.24 5.25 4.82-7.63 4.23-15.34 8.31-22.85 12.73z"/></g><g fill="#fdb84e"><path d="M53.27 26.27c2.6-1.38 6.17.8 6.05 3.77.21 3.37-4.24 5.64-6.82 3.42-2.55-1.74-2.04-6 .77-7.19zM92.28 62.21c3.72-1.18 7.59 3.09 5.77 6.63-1.2 3.23-5.99 4-8.15 1.3-2.47-2.5-.96-7.11 2.38-7.93z"/></g></svg>